<svg width="449.1px" height="142.4px" xmlns="http://www.w3.org/2000/svg" viewBox="25.429229736328125 3.8000000000000114 449.14154052734375 142.39999999999998" style="background: rgba(0, 0, 0, 0)" preserveAspectRatio="xMidYMid"><defs><filter id="editing-extrusion" x="-100%" y="-100%" width="300%" height="300%"><feFlood result="color1" flood-color="#444444"></feFlood><feConvolveMatrix order="8,8" divisor="1" kernelMatrix="1 0 0 0 0 0 0 0 0 1 0 0 0 0 0 0 0 0 1 0 0 0 0 0 0 0 0 1 0 0 0 0 0 0 0 0 1 0 0 0 0 0 0 0 0 1 0 0 0 0 0 0 0 0 1 0 0 0 0 0 0 0 0 1" in="SourceAlpha" result="extrude"></feConvolveMatrix><feComposite in="color1" in2="extrude" result="comp-extrude" operator="in"></feComposite><feOffset dx="4" dy="4" in="comp-extrude" result="offset-extrude"></feOffset><feMerge><feMergeNode in="offset-extrude"></feMergeNode><feMergeNode in="SourceGraphic"></feMergeNode></feMerge></filter></defs><g filter="url(#editing-extrusion)"><g transform="matrix(1.4,0,0,1.6,73.3,185.3)"><path d="M -18.7 -92 L -18.7 -92 L -18.7 -92 Q -19.6 -88.6 -20.9 -84.9 L -20.9 -84.9 L -20.9 -84.9 Q -22.2 -81.2 -23.7 -77.8 L -23.7 -77.8 L -23.7 -77.8 Q -23.7 -77.7 -23.9 -77.2 L -23.9 -77.2 L -23.9 -77.2 Q -24.1 -76.8 -24.4 -76.8 L -24.4 -76.8 L -24.4 -76.8 Q -24.5 -76.8 -24.5 -77.4 L -24.5 -77.4 L -24.5 -77.4 Q -24.4 -77.9 -24.4 -78.1 L -24.4 -78.1 L -24.4 -78.1 Q -24.4 -78.9 -24.2 -80 L -24.2 -80 L -24.2 -80 Q -24 -81.2 -23.7 -82.4 L -23.7 -82.4 L -23.7 -82.4 Q -23.5 -83.6 -23.2 -84.8 L -23.2 -84.8 L -23.2 -84.8 Q -23 -85.9 -22.7 -86.7 L -22.7 -86.7 L -22.7 -86.7 Q -22.6 -87.1 -22.3 -88.3 L -22.3 -88.3 L -22.3 -88.3 Q -22 -89.5 -21.6 -91.2 L -21.6 -91.2 L -21.6 -91.2 Q -21.3 -92.8 -20.9 -94.7 L -20.9 -94.7 L -20.9 -94.7 Q -20.6 -96.7 -20.3 -98.4 L -20.3 -98.4 L -20.3 -98.4 Q -20.1 -100.2 -20 -101.7 L -20 -101.7 L -20 -101.7 Q -19.9 -103.2 -20.2 -104 L -20.2 -104 L -20.2 -104 Q -20.3 -104.3 -20.3 -104.4 L -20.3 -104.4 L -20.3 -104.4 Q -20.2 -104.6 -20.1 -104.6 L -20.1 -104.6 L -20.1 -104.6 Q -20 -104.6 -19.9 -104.4 L -19.9 -104.4 L -19.9 -104.4 Q -19.9 -104.3 -19.8 -104.1 L -19.8 -104.1 L -19.8 -104.1 Q -19 -103.1 -18.7 -101.5 L -18.7 -101.5 L -18.7 -101.5 Q -18.3 -100 -18.2 -98.3 L -18.2 -98.3 L -18.2 -98.3 Q -18.1 -96.6 -18.2 -94.9 L -18.2 -94.9 L -18.2 -94.9 Q -18.4 -93.3 -18.7 -92 Z M -19.3 -77.8 L -19.3 -77.8 L -19.3 -77.8 Q -20.1 -74.8 -21.2 -71.6 L -21.2 -71.6 L -21.2 -71.6 Q -22.2 -68.4 -23.1 -65.9 L -23.1 -65.9 L -23.1 -65.9 Q -23.2 -65.6 -23.3 -65.3 L -23.3 -65.3 L -23.3 -65.3 Q -23.5 -65 -23.5 -65.2 L -23.5 -65.2 L -23.5 -65.2 Q -23.7 -65.2 -23.7 -65.5 L -23.7 -65.5 L -23.7 -65.5 Q -23.7 -65.8 -23.7 -66.1 L -23.7 -66.1 L -23.7 -66.1 Q -23.5 -70.9 -22.3 -75.7 L -22.3 -75.7 L -22.3 -75.7 Q -21.2 -80.5 -19.7 -85.4 L -19.7 -85.4 L -19.7 -85.4 Q -18.8 -88.4 -18.1 -91.6 L -18.1 -91.6 L -18.1 -91.6 Q -17.3 -94.7 -17.1 -98.4 L -17.1 -98.4 L -17.1 -98.4 Q -17.1 -98.7 -16.9 -98.7 L -16.9 -98.7 L -16.9 -98.7 Q -16.8 -98.7 -16.7 -98.6 L -16.7 -98.6 L -16.7 -98.6 Q -16.7 -98.4 -16.6 -98.3 L -16.6 -98.3 L -16.6 -98.3 Q -15.9 -96.6 -16.1 -93.8 L -16.1 -93.8 L -16.1 -93.8 Q -16.2 -91 -16.8 -88 L -16.8 -88 L -16.8 -88 Q -17.4 -85.1 -18.2 -82.3 L -18.2 -82.3 L -18.2 -82.3 Q -18.9 -79.5 -19.3 -77.8 Z M -25.2 -59.8 L -25.2 -59.8 L -25.2 -59.8 Q -25 -59.4 -25.1 -59.4 L -25.1 -59.4 L -25.1 -59.4 Q -25.2 -59.4 -25.3 -59.5 L -25.3 -59.5 L -25.3 -59.5 Q -25.4 -59.5 -25.5 -59.5 L -25.5 -59.5 L -25.5 -59.5 Q -27.3 -61.6 -28.1 -64.1 L -28.1 -64.1 L -28.1 -64.1 Q -29 -66.6 -29.1 -69.2 L -29.1 -69.2 L -29.1 -69.2 Q -29.3 -71.8 -28.9 -74.5 L -28.9 -74.5 L -28.9 -74.5 Q -28.6 -77.2 -28 -79.8 L -28 -79.8 L -28 -79.8 Q -27.2 -83.3 -26.1 -86.8 L -26.1 -86.8 L -26.1 -86.8 Q -25 -90.3 -24.1 -93.6 L -24.1 -93.6 L -24.1 -93.6 Q -23.1 -96.8 -22.5 -99.9 L -22.5 -99.9 L -22.5 -99.9 Q -21.9 -103 -22 -105.8 L -22 -105.8 L -22 -105.8 Q -22 -106.1 -21.9 -106.2 L -21.9 -106.2 L -21.9 -106.2 Q -21.8 -106.2 -21.7 -106 L -21.7 -106 L -21.7 -106 Q -21.6 -105.8 -21.6 -105.7 L -21.6 -105.7 L -21.6 -105.7 Q -20.7 -102.7 -21 -99.4 L -21 -99.4 L -21 -99.4 Q -21.4 -96.1 -22.3 -92.6 L -22.3 -92.6 L -22.3 -92.6 Q -23.2 -89.2 -24.4 -85.6 L -24.4 -85.6 L -24.4 -85.6 Q -25.5 -82 -26.3 -78.5 L -26.3 -78.5 L -26.3 -78.5 Q -26.9 -76.2 -27.1 -73.8 L -27.1 -73.8 L -27.1 -73.8 Q -27.4 -71.4 -27.3 -68.9 L -27.3 -68.9 L -27.3 -68.9 Q -27.2 -66.4 -26.7 -64.1 L -26.7 -64.1 L -26.7 -64.1 Q -26.2 -61.8 -25.2 -59.8 Z M -24.5 -64.1 L -24.5 -64.1 L -24.5 -64.1 Q -24.2 -62 -23.2 -59.8 L -23.2 -59.8 L -23.2 -59.8 Q -23.1 -59.7 -23.1 -59.5 L -23.1 -59.5 L -23.1 -59.5 Q -23.1 -59.3 -23.2 -59.3 L -23.2 -59.3 L -23.2 -59.3 Q -23.3 -59.3 -23.6 -59.4 L -23.6 -59.4 L -23.6 -59.4 Q -23.7 -59.5 -23.8 -59.6 L -23.8 -59.6 L -23.8 -59.6 Q -24.6 -60.6 -25.1 -61.4 L -25.1 -61.4 L -25.1 -61.4 Q -25.6 -62.2 -25.9 -64.1 L -25.9 -64.1 L -25.9 -64.1 Q -26 -64.8 -26.1 -65.9 L -26.1 -65.9 L -26.1 -65.9 Q -26.1 -67 -26 -68 L -26 -68 L -26 -68 Q -26 -69 -25.8 -69.7 L -25.8 -69.7 L -25.8 -69.7 Q -25.6 -70.4 -25.4 -70.4 L -25.4 -70.4 L -25.4 -70.4 Q -25.3 -70.4 -25.2 -70.1 L -25.2 -70.1 L -25.2 -70.1 Q -25.1 -69.8 -25.1 -69.4 L -25.1 -69.4 L -25.1 -69.4 Q -25 -68.9 -25 -68.5 L -25 -68.5 L -25 -68.5 Q -24.9 -68.1 -24.9 -68 L -24.9 -68 L -24.9 -68 Q -24.8 -66.9 -24.7 -65.9 L -24.7 -65.9 L -24.7 -65.9 Q -24.7 -65 -24.5 -64.1 Z M 2.8 -75.7 L 2.8 -75.7 L 2.8 -75.7 Q 1.9 -71.9 1.6 -67.7 L 1.6 -67.7 L 1.6 -67.7 Q 1.3 -63.6 2.1 -59.7 L 2.1 -59.7 L 2.1 -59.7 Q 2.2 -59.5 2.1 -59.4 L 2.1 -59.4 L 2.1 -59.4 Q 2 -59.2 1.9 -59.5 L 1.9 -59.5 L 1.9 -59.5 Q 0.8 -61.6 0.4 -63.8 L 0.4 -63.8 L 0.4 -63.8 Q 0 -66 0 -68.1 L 0 -68.1 L 0 -68.1 Q 0 -70.3 0.3 -72.5 L 0.3 -72.5 L 0.3 -72.5 Q 0.6 -74.6 1.1 -76.8 L 1.1 -76.8 L 1.1 -76.8 Q 1.2 -77 1.4 -77.8 L 1.4 -77.8 L 1.4 -77.8 Q 1.6 -78.6 1.7 -79.4 L 1.7 -79.4 L 1.7 -79.4 Q 1.8 -80.2 1.6 -80.7 L 1.6 -80.7 L 1.6 -80.7 Q 1.5 -81.1 0.9 -80.7 L 0.9 -80.7 L 0.9 -80.7 Q -0.6 -79.6 -1.9 -77.9 L -1.9 -77.9 L -1.9 -77.9 Q -3.1 -76.3 -3.9 -74.8 L -3.9 -74.8 L -3.9 -74.8 Q -3.9 -74.6 -4.2 -74 L -4.2 -74 L -4.2 -74 Q -4.4 -73.4 -4.6 -72.7 L -4.6 -72.7 L -4.6 -72.7 Q -4.8 -72 -5 -71.3 L -5 -71.3 L -5 -71.3 Q -5.2 -70.7 -5.3 -70.5 L -5.3 -70.5 L -5.3 -70.5 Q -5.8 -68.5 -6.6 -66.7 L -6.6 -66.7 L -6.6 -66.7 Q -7.3 -64.9 -7.8 -63.4 L -7.8 -63.4 L -7.8 -63.4 Q -8 -62.7 -8.1 -62.8 L -8.1 -62.8 L -8.1 -62.8 Q -8.4 -62.8 -8.4 -63.4 L -8.4 -63.4 L -8.4 -63.4 Q -8.7 -66.5 -7.9 -69.4 L -7.9 -69.4 L -7.9 -69.4 Q -7 -72.3 -6 -75.4 L -6 -75.4 L -6 -75.4 Q -5.4 -77.4 -4.8 -79.3 L -4.8 -79.3 L -4.8 -79.3 Q -4.3 -81.3 -4.3 -83.7 L -4.3 -83.7 L -4.3 -83.7 Q -4.4 -85.3 -3.1 -86.9 L -3.1 -86.9 L -3.1 -86.9 Q -1.8 -88.5 0.9 -89.6 L 0.9 -89.6 L 0.9 -89.6 Q 2.4 -90.3 3.7 -90.2 L 3.7 -90.2 L 3.7 -90.2 Q 5.1 -90.1 6.2 -89.6 L 6.2 -89.6 L 6.2 -89.6 Q 7.4 -89.1 8.3 -88.1 L 8.3 -88.1 L 8.3 -88.1 Q 9.2 -87.2 9.8 -86 L 9.8 -86 L 9.8 -86 Q 10.1 -86.7 10.9 -87.5 L 10.9 -87.5 L 10.9 -87.5 Q 11.7 -88.3 12.7 -88.9 L 12.7 -88.9 L 12.7 -88.9 Q 13.8 -89.5 15.1 -89.8 L 15.1 -89.8 L 15.1 -89.8 Q 16.4 -90.1 18 -89.8 L 18 -89.8 L 18 -89.8 Q 19.2 -89.6 20 -89 L 20 -89 L 20 -89 Q 20.9 -88.5 21.6 -87.7 L 21.6 -87.7 L 21.6 -87.7 Q 22.2 -87 22.6 -86.2 L 22.6 -86.2 L 22.6 -86.2 Q 23 -85.5 23.2 -84.9 L 23.2 -84.9 L 23.2 -84.9 Q 23.9 -82.8 23.9 -80.2 L 23.9 -80.2 L 23.9 -80.2 Q 24 -77.6 23.4 -75.5 L 23.4 -75.5 L 23.4 -75.5 Q 22.4 -72 21.1 -69.3 L 21.1 -69.3 L 21.1 -69.3 Q 19.8 -66.6 19.4 -64.5 L 19.4 -64.5 L 19.4 -64.5 Q 19.2 -63.8 19.1 -63.8 L 19.1 -63.8 L 19.1 -63.8 Q 18.8 -63.8 18.8 -64.1 L 18.8 -64.1 L 18.8 -64.1 Q 18.8 -64.3 18.7 -64.6 L 18.7 -64.6 L 18.7 -64.6 Q 18.6 -65.9 19.1 -68 L 19.1 -68 L 19.1 -68 Q 19.5 -70.1 20.2 -72.5 L 20.2 -72.5 L 20.2 -72.5 Q 20.8 -74.9 21.3 -77.4 L 21.3 -77.4 L 21.3 -77.4 Q 21.8 -79.9 21.8 -82 L 21.8 -82 L 21.8 -82 Q 21.7 -84.2 20.8 -85.8 L 20.8 -85.8 L 20.8 -85.8 Q 19.9 -87.4 17.8 -88 L 17.8 -88 L 17.8 -88 Q 16 -88.4 14.7 -88 L 14.7 -88 L 14.7 -88 Q 13.4 -87.6 12.5 -87.1 L 12.5 -87.1 L 12.5 -87.1 Q 11.2 -86.2 10.8 -85.2 L 10.8 -85.2 L 10.8 -85.2 Q 10.4 -84.2 10.4 -83.3 L 10.4 -83.3 L 10.4 -83.3 Q 11.5 -85.3 13.3 -86.4 L 13.3 -86.4 L 13.3 -86.4 Q 15.1 -87.6 17.5 -86.9 L 17.5 -86.9 L 17.5 -86.9 Q 19.1 -86.4 19.8 -84.9 L 19.8 -84.9 L 19.8 -84.9 Q 20.4 -83.5 20.5 -81.8 L 20.5 -81.8 L 20.5 -81.8 Q 20.6 -80.1 20.2 -78.4 L 20.2 -78.4 L 20.2 -78.4 Q 19.7 -76.6 19.2 -75.5 L 19.2 -75.5 L 19.2 -75.5 Q 19.1 -75.3 18.8 -74.9 L 18.8 -74.9 L 18.8 -74.9 Q 18.6 -74.4 18.3 -74.4 L 18.3 -74.4 L 18.3 -74.4 Q 18.2 -74.4 18.2 -75 L 18.2 -75 L 18.2 -75 Q 18.3 -75.5 18.3 -75.7 L 18.3 -75.7 L 18.3 -75.7 Q 18.5 -76.5 18.5 -77.5 L 18.5 -77.5 L 18.5 -77.5 Q 18.6 -78.5 18.6 -79.6 L 18.6 -79.6 L 18.6 -79.6 Q 18.5 -80.7 18.4 -81.7 L 18.4 -81.7 L 18.4 -81.7 Q 18.3 -82.8 18 -83.5 L 18 -83.5 L 18 -83.5 Q 17.7 -84.4 17 -84.7 L 17 -84.7 L 17 -84.7 Q 16.3 -84.9 15.6 -84.8 L 15.6 -84.8 L 15.6 -84.8 Q 14.8 -84.7 14.1 -84.3 L 14.1 -84.3 L 14.1 -84.3 Q 13.3 -83.9 12.8 -83.5 L 12.8 -83.5 L 12.8 -83.5 Q 11.4 -82.3 11.1 -81.3 L 11.1 -81.3 L 11.1 -81.3 Q 10.8 -80.3 10.6 -79 L 10.6 -79 L 10.6 -79 Q 11.4 -80.3 12.5 -81.4 L 12.5 -81.4 L 12.5 -81.4 Q 13.6 -82.5 14.7 -83.2 L 14.7 -83.2 L 14.7 -83.2 Q 15.3 -83.5 15.7 -83.4 L 15.7 -83.4 L 15.7 -83.4 Q 16.1 -83.3 16.4 -83.1 L 16.4 -83.1 L 16.4 -83.1 Q 16.7 -82.8 16.8 -82.4 L 16.8 -82.4 L 16.8 -82.4 Q 16.9 -81.9 17 -81.6 L 17 -81.6 L 17 -81.6 Q 17.2 -79.5 16.8 -77.9 L 16.8 -77.9 L 16.8 -77.9 Q 16.5 -76.3 16 -74.6 L 16 -74.6 L 16 -74.6 Q 15.5 -72.9 15.2 -70.8 L 15.2 -70.8 L 15.2 -70.8 Q 14.9 -68.8 15.3 -65.7 L 15.3 -65.7 L 15.3 -65.7 Q 15.6 -63.4 16.7 -61.6 L 16.7 -61.6 L 16.7 -61.6 Q 17.7 -59.9 19.2 -59.4 L 19.2 -59.4 L 19.2 -59.4 Q 19.7 -59.3 19.4 -59.2 L 19.4 -59.2 L 19.4 -59.2 Q 19.2 -59.2 19.1 -59.2 L 19.1 -59.2 L 19.1 -59.2 Q 17.9 -59.3 16.9 -60 L 16.9 -60 L 16.9 -60 Q 15.9 -60.8 15.1 -62 L 15.1 -62 L 15.1 -62 Q 14.3 -63.1 13.8 -64.5 L 13.8 -64.5 L 13.8 -64.5 Q 13.3 -65.9 13.2 -67.3 L 13.2 -67.3 L 13.2 -67.3 Q 13 -70.2 13.6 -72.8 L 13.6 -72.8 L 13.6 -72.8 Q 14.1 -75.4 14.6 -77.3 L 14.6 -77.3 L 14.6 -77.3 Q 14.7 -77.8 14.9 -78.6 L 14.9 -78.6 L 14.9 -78.6 Q 15.1 -79.4 15 -80 L 15 -80 L 15 -80 Q 15 -80.5 14.6 -80.6 L 14.6 -80.6 L 14.6 -80.6 Q 14.2 -80.7 13.3 -79.9 L 13.3 -79.9 L 13.3 -79.9 Q 12.1 -78.7 11.1 -77.4 L 11.1 -77.4 L 11.1 -77.4 Q 10.1 -76 9.7 -74.4 L 9.7 -74.4 L 9.7 -74.4 Q 8.2 -69.1 5.5 -64.2 L 5.5 -64.2 L 5.5 -64.2 Q 5.3 -64 5.1 -63.7 L 5.1 -63.7 L 5.1 -63.7 Q 5 -63.5 4.9 -63.6 L 4.9 -63.6 L 4.9 -63.6 Q 4.8 -63.6 4.8 -63.9 L 4.8 -63.9 L 4.8 -63.9 Q 4.9 -64.2 5 -64.5 L 5 -64.5 L 5 -64.5 Q 5.3 -66.8 5.9 -68.9 L 5.9 -68.9 L 5.9 -68.9 Q 6.5 -71 7 -73.2 L 7 -73.2 L 7 -73.2 Q 7.6 -75.4 8 -77.7 L 8 -77.7 L 8 -77.7 Q 8.4 -80.1 8.5 -82.8 L 8.5 -82.8 L 8.5 -82.8 Q 8.3 -83.7 8.1 -84.6 L 8.1 -84.6 L 8.1 -84.6 Q 7.9 -85.6 6.8 -86.9 L 6.8 -86.9 L 6.8 -86.9 Q 5.5 -88.3 3.8 -88.3 L 3.8 -88.3 L 3.8 -88.3 Q 2.1 -88.4 1 -88 L 1 -88 L 1 -88 Q 0.3 -87.8 -0.5 -87.3 L -0.5 -87.3 L -0.5 -87.3 Q -1.3 -86.8 -2 -86.1 L -2 -86.1 L -2 -86.1 Q -2.7 -85.4 -3.1 -84.5 L -3.1 -84.5 L -3.1 -84.5 Q -3.5 -83.5 -3.3 -82.4 L -3.3 -82.4 L -3.3 -82.4 Q -2.6 -83.7 -1.7 -84.9 L -1.7 -84.9 L -1.7 -84.9 Q -0.7 -86.2 0.7 -86.8 L 0.7 -86.8 L 0.7 -86.8 Q 1.2 -87 1.9 -87.2 L 1.9 -87.2 L 1.9 -87.2 Q 2.6 -87.3 3.4 -87.3 L 3.4 -87.3 L 3.4 -87.3 Q 4.1 -87.4 4.9 -87.1 L 4.9 -87.1 L 4.9 -87.1 Q 5.7 -86.9 6.2 -86.2 L 6.2 -86.2 L 6.2 -86.2 Q 7.3 -84.9 7.4 -83.9 L 7.4 -83.9 L 7.4 -83.9 Q 7.4 -82.8 7.4 -81.8 L 7.4 -81.8 L 7.4 -81.8 Q 7.3 -80 6.8 -78.3 L 6.8 -78.3 L 6.8 -78.3 Q 6.4 -76.7 5.7 -75.2 L 5.7 -75.2 L 5.7 -75.2 Q 5.6 -75 5.3 -74.6 L 5.3 -74.6 L 5.3 -74.6 Q 5.1 -74.2 5 -74.2 L 5 -74.2 L 5 -74.2 Q 4.8 -74.3 4.8 -74.7 L 4.8 -74.7 L 4.8 -74.7 Q 4.8 -75.2 4.9 -75.4 L 4.9 -75.4 L 4.9 -75.4 Q 5 -76.1 5.1 -77.5 L 5.1 -77.5 L 5.1 -77.5 Q 5.2 -78.9 5.2 -80.4 L 5.2 -80.4 L 5.2 -80.4 Q 5.3 -81.9 5.1 -83.1 L 5.1 -83.1 L 5.1 -83.1 Q 4.9 -84.4 4.2 -84.9 L 4.2 -84.9 L 4.2 -84.9 Q 3.7 -85.3 2.5 -85.1 L 2.5 -85.1 L 2.5 -85.1 Q 1.4 -84.9 0.5 -84.2 L 0.5 -84.2 L 0.5 -84.2 Q -0.4 -83.5 -1 -82.9 L -1 -82.9 L -1 -82.9 Q -1.6 -82.3 -2 -81.6 L -2 -81.6 L -2 -81.6 Q -2.4 -80.9 -2.7 -80.1 L -2.7 -80.1 L -2.7 -80.1 Q -3 -79.3 -3.2 -78.2 L -3.2 -78.2 L -3.2 -78.2 Q -2.4 -79.7 -1.4 -81 L -1.4 -81 L -1.4 -81 Q -0.4 -82.3 1.1 -83.2 L 1.1 -83.2 L 1.1 -83.2 Q 2.1 -83.9 2.7 -83.7 L 2.7 -83.7 L 2.7 -83.7 Q 3.3 -83.6 3.5 -83 L 3.5 -83 L 3.5 -83 Q 3.7 -82.4 3.7 -81.6 L 3.7 -81.6 L 3.7 -81.6 Q 3.7 -80.7 3.6 -79.9 L 3.6 -79.9 L 3.6 -79.9 Q 3.5 -78.9 3.3 -77.8 L 3.3 -77.8 L 3.3 -77.8 Q 3.1 -76.7 2.8 -75.7 Z M 21.1 -59.4 L 21.1 -59.4 L 21.1 -59.4 Q 21.1 -59.4 20.8 -59.4 L 20.8 -59.4 L 20.8 -59.4 Q 20.7 -59.4 20.5 -59.5 L 20.5 -59.5 L 20.5 -59.5 Q 19.6 -59.7 18.6 -60.3 L 18.6 -60.3 L 18.6 -60.3 Q 17.6 -60.9 16.9 -62.5 L 16.9 -62.5 L 16.9 -62.5 Q 16.6 -63.2 16.5 -64.2 L 16.5 -64.2 L 16.5 -64.2 Q 16.3 -65.2 16.3 -66.2 L 16.3 -66.2 L 16.3 -66.2 Q 16.3 -67.2 16.5 -67.9 L 16.5 -67.9 L 16.5 -67.9 Q 16.6 -68.6 16.9 -68.5 L 16.9 -68.5 L 16.9 -68.5 Q 16.9 -68.5 17 -68.2 L 17 -68.2 L 17 -68.2 Q 17.1 -67.9 17.2 -67.5 L 17.2 -67.5 L 17.2 -67.5 Q 17.2 -67.2 17.3 -66.8 L 17.3 -66.8 L 17.3 -66.8 Q 17.4 -66.4 17.4 -66.2 L 17.4 -66.2 L 17.4 -66.2 Q 17.5 -65.3 17.7 -64.4 L 17.7 -64.4 L 17.7 -64.4 Q 17.9 -63.6 18.2 -62.9 L 18.2 -62.9 L 18.2 -62.9 Q 18.5 -61.9 19.4 -60.8 L 19.4 -60.8 L 19.4 -60.8 Q 20.2 -59.8 21 -59.7 L 21 -59.7 L 21 -59.7 Q 21.3 -59.5 21.1 -59.4 Z M 3.9 -59.5 L 3.9 -59.5 L 3.9 -59.5 Q 4.1 -59.1 3.9 -59.1 L 3.9 -59.1 L 3.9 -59.1 Q 3.6 -59.1 3.4 -59.4 L 3.4 -59.4 L 3.4 -59.4 Q 3.1 -59.8 2.8 -60.5 L 2.8 -60.5 L 2.8 -60.5 Q 2.5 -61.3 2.5 -63.1 L 2.5 -63.1 L 2.5 -63.1 Q 2.5 -63.8 2.6 -64.8 L 2.6 -64.8 L 2.6 -64.8 Q 2.8 -65.7 2.9 -66.6 L 2.9 -66.6 L 2.9 -66.6 Q 3.1 -67.5 3.3 -68 L 3.3 -68 L 3.3 -68 Q 3.5 -68.6 3.7 -68.6 L 3.7 -68.6 L 3.7 -68.6 Q 3.8 -68.6 3.8 -68.3 L 3.8 -68.3 L 3.8 -68.3 Q 3.9 -68 3.9 -67.6 L 3.9 -67.6 L 3.9 -67.6 Q 3.9 -67.2 3.9 -66.9 L 3.9 -66.9 L 3.9 -66.9 Q 3.9 -66.5 3.9 -66.4 L 3.9 -66.4 L 3.9 -66.4 Q 3.9 -65.4 3.9 -64.6 L 3.9 -64.6 L 3.9 -64.6 Q 3.8 -63.8 3.8 -62.9 L 3.8 -62.9 L 3.8 -62.9 Q 3.8 -61.6 3.8 -60.8 L 3.8 -60.8 L 3.8 -60.8 Q 3.8 -60 3.9 -59.5 Z M -5.5 -80.8 L -5.5 -80.8 L -5.5 -80.8 Q -6.2 -78.4 -7.4 -76 L -7.4 -76 L -7.4 -76 Q -8.6 -73.6 -9.4 -71.4 L -9.4 -71.4 L -9.4 -71.4 Q -9.4 -71.3 -9.6 -71 L -9.6 -71 L -9.6 -71 Q -9.8 -70.6 -10 -70.7 L -10 -70.7 L -10 -70.7 Q -10.2 -70.7 -10.2 -71.1 L -10.2 -71.1 L -10.2 -71.1 Q -10.2 -71.4 -10.2 -71.6 L -10.2 -71.6 L -10.2 -71.6 Q -10.2 -72.7 -9.9 -74.4 L -9.9 -74.4 L -9.9 -74.4 Q -9.5 -76 -9.1 -77.1 L -9.1 -77.1 L -9.1 -77.1 Q -9 -77.5 -8.6 -79.1 L -8.6 -79.1 L -8.6 -79.1 Q -8.3 -80.7 -8 -82.5 L -8 -82.5 L -8 -82.5 Q -7.7 -84.4 -7.6 -86.1 L -7.6 -86.1 L -7.6 -86.1 Q -7.5 -87.8 -8 -88.6 L -8 -88.6 L -8 -88.6 Q -8.2 -89 -8 -89 L -8 -89 L -8 -89 Q -7.8 -89 -7.5 -88.7 L -7.5 -88.7 L -7.5 -88.7 Q -6.7 -88 -6.2 -87 L -6.2 -87 L -6.2 -87 Q -5.7 -86 -5.5 -84.8 L -5.5 -84.8 L -5.5 -84.8 Q -5.3 -83.7 -5.3 -82.6 L -5.3 -82.6 L -5.3 -82.6 Q -5.4 -81.6 -5.5 -80.8 Z M -9.8 -59.5 L -9.8 -59.5 L -9.8 -59.5 Q -11.8 -60.8 -12.8 -62.4 L -12.8 -62.4 L -12.8 -62.4 Q -13.9 -64 -14.2 -65.7 L -14.2 -65.7 L -14.2 -65.7 Q -14.6 -67.5 -14.5 -69.3 L -14.5 -69.3 L -14.5 -69.3 Q -14.4 -71.1 -14.1 -72.8 L -14.1 -72.8 L -14.1 -72.8 Q -13.5 -75.1 -12.7 -77.4 L -12.7 -77.4 L -12.7 -77.4 Q -11.9 -79.6 -11.2 -81.8 L -11.2 -81.8 L -11.2 -81.8 Q -10.5 -83.9 -10.1 -86 L -10.1 -86 L -10.1 -86 Q -9.6 -88 -10 -89.9 L -10 -89.9 L -10 -89.9 Q -10 -90.1 -9.9 -90.1 L -9.9 -90.1 L -9.9 -90.1 Q -9.8 -90.1 -9.6 -89.8 L -9.6 -89.8 L -9.6 -89.8 Q -8.4 -87.8 -8.5 -85.6 L -8.5 -85.6 L -8.5 -85.6 Q -8.6 -83.4 -9.2 -81.1 L -9.2 -81.1 L -9.2 -81.1 Q -9.8 -78.9 -10.8 -76.5 L -10.8 -76.5 L -10.8 -76.5 Q -11.7 -74.2 -12.2 -71.8 L -12.2 -71.8 L -12.2 -71.8 Q -12.5 -70.4 -12.6 -68.7 L -12.6 -68.7 L -12.6 -68.7 Q -12.7 -67.1 -12.4 -65.5 L -12.4 -65.5 L -12.4 -65.5 Q -12.1 -63.9 -11.3 -62.4 L -11.3 -62.4 L -11.3 -62.4 Q -10.6 -60.8 -9.3 -59.6 L -9.3 -59.6 L -9.3 -59.6 Q -9.1 -59.5 -9.2 -59.3 L -9.2 -59.3 L -9.2 -59.3 Q -9.3 -59.2 -9.5 -59.3 L -9.5 -59.3 L -9.5 -59.3 Q -9.6 -59.4 -9.8 -59.5 Z M -7.3 -59.2 L -7.3 -59.2 L -7.3 -59.2 Q -7.5 -59.1 -7.8 -59.4 L -7.8 -59.4 L -7.8 -59.4 Q -8.6 -59.9 -9.2 -60.5 L -9.2 -60.5 L -9.2 -60.5 Q -9.9 -61.1 -10.5 -62.4 L -10.5 -62.4 L -10.5 -62.4 Q -10.8 -62.8 -10.9 -63.5 L -10.9 -63.5 L -10.9 -63.5 Q -11 -64.2 -11 -64.9 L -11 -64.9 L -11 -64.9 Q -11 -65.6 -11 -66 L -11 -66 L -11 -66 Q -10.9 -66.4 -10.7 -66.4 L -10.7 -66.4 L -10.7 -66.4 Q -10.4 -66.4 -10.2 -65.7 L -10.2 -65.7 L -10.2 -65.7 Q -10.1 -65.1 -10 -64.9 L -10 -64.9 L -10 -64.9 Q -9.7 -64.2 -9.5 -63.6 L -9.5 -63.6 L -9.5 -63.6 Q -9.3 -63 -9.1 -62.4 L -9.1 -62.4 L -9.1 -62.4 Q -8.7 -61.5 -8.3 -60.9 L -8.3 -60.9 L -8.3 -60.9 Q -7.9 -60.2 -7.4 -59.6 L -7.4 -59.6 L -7.4 -59.6 Q -7.3 -59.5 -7.3 -59.4 L -7.3 -59.4 L -7.3 -59.4 Q -7.2 -59.3 -7.3 -59.2 Z M 49.9 -82.1 L 49.9 -82.1 L 49.9 -82.1 Q 49.4 -79.5 48.2 -76.9 L 48.2 -76.9 L 48.2 -76.9 Q 47 -74.4 45.9 -72.1 L 45.9 -72.1 L 45.9 -72.1 Q 45.8 -72 45.6 -71.7 L 45.6 -71.7 L 45.6 -71.7 Q 45.4 -71.4 45.3 -71.4 L 45.3 -71.4 L 45.3 -71.4 Q 45.1 -71.4 45.1 -71.8 L 45.1 -71.8 L 45.1 -71.8 Q 45.1 -72.1 45.1 -72.3 L 45.1 -72.3 L 45.1 -72.3 Q 45.1 -72.8 45.3 -73.6 L 45.3 -73.6 L 45.3 -73.6 Q 45.5 -74.4 45.6 -75.3 L 45.6 -75.3 L 45.6 -75.3 Q 45.7 -76.2 45.9 -77 L 45.9 -77 L 45.9 -77 Q 46 -77.8 46.2 -78.4 L 46.2 -78.4 L 46.2 -78.4 Q 46.8 -80.6 47.2 -82.2 L 47.2 -82.2 L 47.2 -82.2 Q 47.6 -83.7 47.8 -85 L 47.8 -85 L 47.8 -85 Q 48 -86.3 48 -87.4 L 48 -87.4 L 48 -87.4 Q 48 -88.6 47.8 -89.9 L 47.8 -89.9 L 47.8 -89.9 Q 47.8 -90.4 47.9 -90.6 L 47.9 -90.6 L 47.9 -90.6 Q 48 -90.6 48.2 -90.4 L 48.2 -90.4 L 48.2 -90.4 Q 48.4 -90.3 48.5 -90.1 L 48.5 -90.1 L 48.5 -90.1 Q 49.6 -88.3 50 -86.3 L 50 -86.3 L 50 -86.3 Q 50.4 -84.2 49.9 -82.1 Z M 51.2 -86.7 L 51.5 -86.4 L 51.5 -86.4 Q 52.3 -85.1 52.3 -83.2 L 52.3 -83.2 L 52.3 -83.2 Q 52.3 -81.2 51.9 -79.1 L 51.9 -79.1 L 51.9 -79.1 Q 51.5 -77 51 -75.1 L 51 -75.1 L 51 -75.1 Q 50.4 -73.2 50.1 -72 L 50.1 -72 L 50.1 -72 Q 49.6 -69.8 48.7 -67.5 L 48.7 -67.5 L 48.7 -67.5 Q 47.8 -65.3 47.2 -63.6 L 47.2 -63.6 L 47.2 -63.6 Q 47.1 -63.4 47 -63.2 L 47 -63.2 L 47 -63.2 Q 46.9 -62.9 46.7 -62.9 L 46.7 -62.9 L 46.7 -62.9 Q 46.6 -62.9 46.6 -63.2 L 46.6 -63.2 L 46.6 -63.2 Q 46.6 -63.4 46.6 -63.6 L 46.6 -63.6 L 46.6 -63.6 Q 46.4 -67.2 47.4 -70.5 L 47.4 -70.5 L 47.4 -70.5 Q 48.3 -73.9 49.4 -77.3 L 49.4 -77.3 L 49.4 -77.3 Q 50.1 -79.4 50.6 -81.6 L 50.6 -81.6 L 50.6 -81.6 Q 51.2 -83.9 51.2 -86.5 L 51.2 -86.5 L 51.2 -86.5 Q 51.2 -86.7 51.2 -86.7 L 51.2 -86.7 Z M 45.5 -87.4 L 45.5 -87.4 L 45.5 -87.4 Q 41.6 -85.8 38.8 -82.9 L 38.8 -82.9 L 38.8 -82.9 Q 36.1 -79.9 34.6 -76.2 L 34.6 -76.2 L 34.6 -76.2 Q 34 -74.5 33.7 -73.2 L 33.7 -73.2 L 33.7 -73.2 Q 33.4 -71.9 33.2 -70.4 L 33.2 -70.4 L 33.2 -70.4 Q 33.1 -70 33.4 -69.7 L 33.4 -69.7 L 33.4 -69.7 Q 33.6 -69.4 33.9 -69.7 L 33.9 -69.7 L 33.9 -69.7 Q 35 -71.1 36.8 -73.3 L 36.8 -73.3 L 36.8 -73.3 Q 38.6 -75.5 40.4 -77.9 L 40.4 -77.9 L 40.4 -77.9 Q 42.2 -80.3 43.6 -82.8 L 43.6 -82.8 L 43.6 -82.8 Q 45.1 -85.3 45.5 -87.4 Z M 41.2 -65.7 L 41.2 -65.7 L 41.2 -65.7 Q 40.2 -64.4 39.3 -63.2 L 39.3 -63.2 L 39.3 -63.2 Q 38.4 -62.1 37.3 -61.2 L 37.3 -61.2 L 37.3 -61.2 Q 36.2 -60.4 34.9 -59.9 L 34.9 -59.9 L 34.9 -59.9 Q 33.6 -59.3 31.8 -59.3 L 31.8 -59.3 L 31.8 -59.3 Q 29 -59.2 27.4 -60.8 L 27.4 -60.8 L 27.4 -60.8 Q 25.9 -62.4 25.4 -64.7 L 25.4 -64.7 L 25.4 -64.7 Q 24.8 -67 25 -69.4 L 25 -69.4 L 25 -69.4 Q 25.1 -71.9 25.6 -73.5 L 25.6 -73.5 L 25.6 -73.5 Q 26.3 -75.7 27.3 -77.7 L 27.3 -77.7 L 27.3 -77.7 Q 28.3 -79.8 29.4 -81.4 L 29.4 -81.4 L 29.4 -81.4 Q 30.6 -83 31.7 -84.2 L 31.7 -84.2 L 31.7 -84.2 Q 32.9 -85.4 34.1 -86 L 34.1 -86 L 34.1 -86 Q 34.1 -86 34.4 -86.2 L 34.4 -86.2 L 34.4 -86.2 Q 34.6 -86.3 34.6 -86.1 L 34.6 -86.1 L 34.6 -86.1 Q 34.6 -86.1 34.5 -85.9 L 34.5 -85.9 L 34.5 -85.9 Q 34.4 -85.7 34.3 -85.6 L 34.3 -85.6 L 34.3 -85.6 Q 30.9 -82.1 29 -77.8 L 29 -77.8 L 29 -77.8 Q 27 -73.4 26.8 -68.8 L 26.8 -68.8 L 26.8 -68.8 Q 26.7 -67.7 26.9 -66.3 L 26.9 -66.3 L 26.9 -66.3 Q 27 -65 27.5 -63.8 L 27.5 -63.8 L 27.5 -63.8 Q 28 -62.6 28.9 -61.8 L 28.9 -61.8 L 28.9 -61.8 Q 29.8 -61 31.3 -61 L 31.3 -61 L 31.3 -61 Q 32.5 -61 33.6 -61.4 L 33.6 -61.4 L 33.6 -61.4 Q 34.6 -61.8 35.5 -62.5 L 35.5 -62.5 L 35.5 -62.5 Q 36.4 -63.2 37.1 -64 L 37.1 -64 L 37.1 -64 Q 37.8 -64.8 38.4 -65.5 L 38.4 -65.5 L 38.4 -65.5 Q 39.7 -67.1 40.8 -68.8 L 40.8 -68.8 L 40.8 -68.8 Q 40.8 -70.1 41 -71.3 L 41 -71.3 L 41 -71.3 Q 41.1 -72.5 41.4 -73.7 L 41.4 -73.7 L 41.4 -73.7 Q 41.6 -74.6 41.8 -75.2 L 41.8 -75.2 L 41.8 -75.2 Q 41.9 -75.7 42.1 -76.2 L 42.1 -76.2 L 42.1 -76.2 Q 42.3 -76.7 42.4 -77.2 L 42.4 -77.2 L 42.4 -77.2 Q 42.6 -77.8 42.9 -78.7 L 42.9 -78.7 L 42.9 -78.7 Q 41.9 -76.9 40.9 -75.3 L 40.9 -75.3 L 40.9 -75.3 Q 39.9 -73.7 38.8 -72.3 L 38.8 -72.3 L 38.8 -72.3 Q 37.7 -70.9 36.5 -69.5 L 36.5 -69.5 L 36.5 -69.5 Q 35.3 -68.1 33.9 -66.7 L 33.9 -66.7 L 33.9 -66.7 Q 32.8 -65.6 32.1 -66 L 32.1 -66 L 32.1 -66 Q 31.4 -66.4 31.3 -67.8 L 31.3 -67.8 L 31.3 -67.8 Q 31.1 -70 31.5 -72 L 31.5 -72 L 31.5 -72 Q 31.8 -74.1 32.7 -76.3 L 32.7 -76.3 L 32.7 -76.3 Q 33.6 -78.4 34.8 -80.3 L 34.8 -80.3 L 34.8 -80.3 Q 36.1 -82.2 37.7 -83.8 L 37.7 -83.8 L 37.7 -83.8 Q 39.3 -85.3 41.3 -86.4 L 41.3 -86.4 L 41.3 -86.4 Q 43.3 -87.6 45.5 -88 L 45.5 -88 L 45.5 -88 Q 45.7 -88.7 45.8 -89.2 L 45.8 -89.2 L 45.8 -89.2 Q 45.8 -89.7 45.9 -90.2 L 45.9 -90.2 L 45.9 -90.2 Q 46 -90.9 46 -90.9 L 46 -90.9 L 46 -90.9 Q 46.2 -91 46.3 -90.8 L 46.3 -90.8 L 46.3 -90.8 Q 46.5 -90.6 46.6 -90.3 L 46.6 -90.3 L 46.6 -90.3 Q 47.4 -88.1 47.1 -86 L 47.1 -86 L 47.1 -86 Q 46.9 -83.9 46.2 -81.7 L 46.2 -81.7 L 46.2 -81.7 Q 45.5 -79.6 44.6 -77.3 L 44.6 -77.3 L 44.6 -77.3 Q 43.7 -75 43.2 -72.7 L 43.2 -72.7 L 43.2 -72.7 Q 42.4 -69.5 42.7 -66 L 42.7 -66 L 42.7 -66 Q 43.1 -62.5 45.5 -59.7 L 45.5 -59.7 L 45.5 -59.7 Q 45.7 -59.4 45.7 -59.4 L 45.7 -59.4 L 45.7 -59.4 Q 45.6 -59.3 45.3 -59.5 L 45.3 -59.5 L 45.3 -59.5 Q 43.4 -60.7 42.5 -62.3 L 42.5 -62.3 L 42.5 -62.3 Q 41.6 -64 41.2 -65.7 Z M 43.4 -88.4 L 43.4 -88.4 L 43.4 -88.4 Q 43.5 -88.3 43.4 -88.2 L 43.4 -88.2 L 43.4 -88.2 Q 43.2 -88.1 42.7 -88 L 42.7 -88 L 42.7 -88 Q 41.9 -87.8 40.7 -87.1 L 40.7 -87.1 L 40.7 -87.1 Q 39.5 -86.4 38.2 -85.3 L 38.2 -85.3 L 38.2 -85.3 Q 36.9 -84.2 35.6 -82.7 L 35.6 -82.7 L 35.6 -82.7 Q 34.3 -81.3 33.4 -79.6 L 33.4 -79.6 L 33.4 -79.6 Q 32.4 -77.9 31.7 -76.2 L 31.7 -76.2 L 31.7 -76.2 Q 31.1 -74.6 30.6 -73.2 L 30.6 -73.2 L 30.6 -73.2 Q 30.2 -71.8 30 -70.8 L 30 -70.8 L 30 -70.8 Q 29.8 -69.8 29.8 -69.5 L 29.8 -69.5 L 29.8 -69.5 Q 29.8 -68.5 29.8 -67.4 L 29.8 -67.4 L 29.8 -67.4 Q 29.8 -66.4 30.1 -65.6 L 30.1 -65.6 L 30.1 -65.6 Q 30.4 -64.7 31 -64.3 L 31 -64.3 L 31 -64.3 Q 31.6 -63.8 32.9 -64 L 32.9 -64 L 32.9 -64 Q 33 -64 33.2 -64.1 L 33.2 -64.1 L 33.2 -64.1 Q 33.5 -64.2 33.8 -64.3 L 33.8 -64.3 L 33.8 -64.3 Q 34 -64.4 34.2 -64.5 L 34.2 -64.5 L 34.2 -64.5 Q 34.5 -64.5 34.5 -64.5 L 34.5 -64.5 L 34.5 -64.5 Q 34.6 -64.4 34.4 -64.2 L 34.4 -64.2 L 34.4 -64.2 Q 34.3 -64 34 -63.8 L 34 -63.8 L 34 -63.8 Q 33.8 -63.6 33.5 -63.4 L 33.5 -63.4 L 33.5 -63.4 Q 33.3 -63.2 33.2 -63.1 L 33.2 -63.1 L 33.2 -63.1 Q 31.6 -62.2 30.6 -62.5 L 30.6 -62.5 L 30.6 -62.5 Q 29.5 -62.9 28.9 -64 L 28.9 -64 L 28.9 -64 Q 28.2 -65 28 -66.5 L 28 -66.5 L 28 -66.5 Q 27.8 -67.9 27.9 -69.1 L 27.9 -69.1 L 27.9 -69.1 Q 28 -71.3 28.6 -73.5 L 28.6 -73.5 L 28.6 -73.5 Q 29.1 -75.7 30 -78 L 30 -78 L 30 -78 Q 30.7 -79.7 32.2 -81.5 L 32.2 -81.5 L 32.2 -81.5 Q 33.6 -83.3 35.3 -84.9 L 35.3 -84.9 L 35.3 -84.9 Q 37.1 -86.4 39 -87.4 L 39 -87.4 L 39 -87.4 Q 40.9 -88.4 42.7 -88.5 L 42.7 -88.5 L 42.7 -88.5 Q 43.4 -88.5 43.4 -88.4 Z M 47.2 -59.7 L 47.2 -59.7 L 47.2 -59.7 Q 47.3 -59.5 47.3 -59.4 L 47.3 -59.4 L 47.3 -59.4 Q 47.1 -59.4 46.7 -59.5 L 46.7 -59.5 L 46.7 -59.5 Q 46.6 -59.7 45.7 -60.3 L 45.7 -60.3 L 45.7 -60.3 Q 44.9 -60.9 44.5 -62.4 L 44.5 -62.4 L 44.5 -62.4 Q 44.4 -62.9 44.3 -63.7 L 44.3 -63.7 L 44.3 -63.7 Q 44.2 -64.5 44.2 -65.2 L 44.2 -65.2 L 44.2 -65.2 Q 44.2 -65.9 44.3 -66.4 L 44.3 -66.4 L 44.3 -66.4 Q 44.4 -66.9 44.6 -66.9 L 44.6 -66.9 L 44.6 -66.9 Q 44.8 -66.9 45 -66.1 L 45 -66.1 L 45 -66.1 Q 45.2 -65.4 45.3 -65.2 L 45.3 -65.2 L 45.3 -65.2 Q 45.5 -64.3 45.6 -63.6 L 45.6 -63.6 L 45.6 -63.6 Q 45.8 -62.9 46 -62.4 L 46 -62.4 L 46 -62.4 Q 46.2 -61.6 46.6 -60.8 L 46.6 -60.8 L 46.6 -60.8 Q 47.1 -59.9 47.2 -59.7 Z M 76.8 -88 L 76.8 -88.1 L 76.8 -88.1 Q 76.6 -88.2 76.5 -88 L 76.5 -88 L 76.5 -88 Q 76.3 -87.7 76.2 -87.6 L 76.2 -87.6 L 76.2 -87.6 Q 75.2 -86.4 74.5 -84.6 L 74.5 -84.6 L 74.5 -84.6 Q 73.7 -82.8 73.1 -80.8 L 73.1 -80.8 L 73.1 -80.8 Q 72.6 -78.8 72.2 -76.8 L 72.2 -76.8 L 72.2 -76.8 Q 71.9 -74.8 71.6 -73.3 L 71.6 -73.3 L 71.6 -73.3 Q 71.3 -71.1 71.1 -69.2 L 71.1 -69.2 L 71.1 -69.2 Q 70.9 -67.2 70.7 -65.4 L 70.7 -65.4 L 70.7 -65.4 Q 70.5 -63.5 70.4 -61.6 L 70.4 -61.6 L 70.4 -61.6 Q 70.2 -59.7 70 -57.7 L 70 -57.7 L 70 -57.7 Q 70.1 -57.7 70.1 -57.4 L 70.1 -57.4 L 70.1 -57.4 Q 70.1 -57.1 70.1 -56.8 L 70.1 -56.8 L 70.1 -56.8 Q 70.1 -56.5 70.1 -56.3 L 70.1 -56.3 L 70.1 -56.3 Q 70.1 -56.1 70.2 -56.1 L 70.2 -56.1 L 70.2 -56.1 Q 70.3 -56.1 70.4 -56.3 L 70.4 -56.3 L 70.4 -56.3 Q 70.6 -56.5 70.7 -56.8 L 70.7 -56.8 L 70.7 -56.8 Q 70.8 -57 70.9 -57.3 L 70.9 -57.3 L 70.9 -57.3 Q 70.9 -57.6 70.9 -57.6 L 70.9 -57.6 L 70.9 -57.6 Q 71.6 -59.1 72.2 -61.1 L 72.2 -61.1 L 72.2 -61.1 Q 72.7 -63.2 73 -65.2 L 73 -65.2 L 73 -65.2 Q 73 -65.7 73.2 -67.3 L 73.2 -67.3 L 73.2 -67.3 Q 73.4 -68.9 73.7 -71.1 L 73.7 -71.1 L 73.7 -71.1 Q 73.9 -73.2 74.3 -75.6 L 74.3 -75.6 L 74.3 -75.6 Q 74.6 -78.1 75 -80.4 L 75 -80.4 L 75 -80.4 Q 75.4 -82.6 75.8 -84.5 L 75.8 -84.5 L 75.8 -84.5 Q 76.2 -86.4 76.6 -87.3 L 76.6 -87.3 L 76.6 -87.3 Q 76.6 -87.6 76.7 -87.7 L 76.7 -87.7 L 76.7 -87.7 Q 76.8 -87.8 76.8 -88 L 76.8 -88 Z M 74.6 -88.4 L 74.6 -88.4 L 74.6 -88.4 Q 74.6 -88.5 74.2 -88.5 L 74.2 -88.5 L 74.2 -88.5 Q 74 -88.5 73.8 -88.4 L 73.8 -88.4 L 73.8 -88.4 Q 71.4 -88.1 69.3 -87.1 L 69.3 -87.1 L 69.3 -87.1 Q 67.3 -86 65.6 -84.5 L 65.6 -84.5 L 65.6 -84.5 Q 63.9 -82.9 62.6 -80.9 L 62.6 -80.9 L 62.6 -80.9 Q 61.3 -78.9 60.4 -76.8 L 60.4 -76.8 L 60.4 -76.8 Q 59.5 -74.6 59.1 -72.2 L 59.1 -72.2 L 59.1 -72.2 Q 58.6 -69.8 58.8 -67.7 L 58.8 -67.7 L 58.8 -67.7 Q 59 -64.9 61.2 -67.2 L 61.2 -67.2 L 61.2 -67.2 Q 63.1 -69.1 64.8 -71.3 L 64.8 -71.3 L 64.8 -71.3 Q 66.5 -73.6 68 -76 L 68 -76 L 68 -76 Q 69.5 -78.5 70.9 -81.1 L 70.9 -81.1 L 70.9 -81.1 Q 72.2 -83.7 73.6 -86.4 L 73.6 -86.4 L 73.6 -86.4 Q 73.8 -86.9 73.8 -86.9 L 73.8 -86.9 L 73.8 -86.9 Q 73.6 -87 73.5 -86.9 L 73.5 -86.9 L 73.5 -86.9 Q 73.3 -86.7 73.3 -86.6 L 73.3 -86.6 L 73.3 -86.6 Q 69.8 -82.2 66.9 -78.2 L 66.9 -78.2 L 66.9 -78.2 Q 63.9 -74.1 61.4 -70.2 L 61.4 -70.2 L 61.4 -70.2 Q 61.1 -69.8 61 -70 L 61 -70 L 61 -70 Q 60.9 -70.1 61 -70.4 L 61 -70.4 L 61 -70.4 Q 61.1 -71.9 61.4 -73.5 L 61.4 -73.5 L 61.4 -73.5 Q 61.8 -75 62.4 -76.6 L 62.4 -76.6 L 62.4 -76.6 Q 64 -80.5 66.8 -83.5 L 66.8 -83.5 L 66.8 -83.5 Q 69.7 -86.5 74.1 -88 L 74.1 -88 L 74.1 -88 Q 74.6 -88.3 74.6 -88.4 Z M 71.2 -88.8 L 71.2 -88.8 L 71.2 -88.8 Q 71.1 -89 70.9 -89 L 70.9 -89 L 70.9 -89 Q 70.7 -89 70.5 -89 L 70.5 -89 L 70.5 -89 Q 68.7 -89 66.7 -88 L 66.7 -88 L 66.7 -88 Q 64.8 -86.9 63 -85.4 L 63 -85.4 L 63 -85.4 Q 61.2 -83.8 59.8 -81.9 L 59.8 -81.9 L 59.8 -81.9 Q 58.4 -80 57.7 -78.3 L 57.7 -78.3 L 57.7 -78.3 Q 56.8 -76 56.2 -73.8 L 56.2 -73.8 L 56.2 -73.8 Q 55.6 -71.7 55.5 -69.5 L 55.5 -69.5 L 55.5 -69.5 Q 55.4 -68.4 55.6 -67.3 L 55.6 -67.3 L 55.6 -67.3 Q 55.8 -66.2 56.2 -64.9 L 56.2 -64.9 L 56.2 -64.9 Q 56.5 -64.1 57.1 -63.7 L 57.1 -63.7 L 57.1 -63.7 Q 57.7 -63.2 58.4 -63.1 L 58.4 -63.1 L 58.4 -63.1 Q 59 -63 59.7 -63.1 L 59.7 -63.1 L 59.7 -63.1 Q 60.4 -63.2 61 -63.6 L 61 -63.6 L 61 -63.6 Q 61 -63.7 61.2 -63.9 L 61.2 -63.9 L 61.2 -63.9 Q 61.5 -64.1 61.7 -64.3 L 61.7 -64.3 L 61.7 -64.3 Q 61.9 -64.5 62.1 -64.7 L 62.1 -64.7 L 62.1 -64.7 Q 62.2 -64.9 62.2 -65 L 62.2 -65 L 62.2 -65 Q 62.1 -65.2 61.6 -64.9 L 61.6 -64.9 L 61.6 -64.9 Q 61 -64.6 60.6 -64.5 L 60.6 -64.5 L 60.6 -64.5 Q 59.3 -64.3 58.6 -64.7 L 58.6 -64.7 L 58.6 -64.7 Q 57.9 -65.2 57.7 -66 L 57.7 -66 L 57.7 -66 Q 57.4 -66.9 57.4 -68 L 57.4 -68 L 57.4 -68 Q 57.4 -69 57.6 -70 L 57.6 -70 L 57.6 -70 Q 57.6 -70.4 57.7 -71.4 L 57.7 -71.4 L 57.7 -71.4 Q 57.9 -72.3 58.3 -73.7 L 58.3 -73.7 L 58.3 -73.7 Q 58.6 -75.1 59.3 -76.8 L 59.3 -76.8 L 59.3 -76.8 Q 60 -78.4 61 -80.1 L 61 -80.1 L 61 -80.1 Q 61.9 -81.7 63.2 -83.2 L 63.2 -83.2 L 63.2 -83.2 Q 64.5 -84.6 65.9 -85.6 L 65.9 -85.6 L 65.9 -85.6 Q 67.2 -86.7 68.5 -87.4 L 68.5 -87.4 L 68.5 -87.4 Q 69.7 -88.1 70.6 -88.4 L 70.6 -88.4 L 70.6 -88.4 Q 71.1 -88.5 71.1 -88.6 L 71.1 -88.6 L 71.1 -88.6 Q 71.2 -88.7 71.2 -88.8 Z M 78.9 -89.3 L 78.9 -89.6 L 78.9 -89.6 Q 78.7 -89.6 78.6 -89.3 L 78.6 -89.3 L 78.6 -89.3 Q 78.6 -89.2 78.5 -89 L 78.5 -89 L 78.5 -89 Q 76.6 -85 75.8 -80.8 L 75.8 -80.8 L 75.8 -80.8 Q 75 -76.6 74.6 -72.3 L 74.6 -72.3 L 74.6 -72.3 Q 74.3 -67.9 73.9 -63.5 L 73.9 -63.5 L 73.9 -63.5 Q 73.5 -59.1 72.3 -54.7 L 72.3 -54.7 L 72.3 -54.7 Q 72 -53.3 71.6 -51.7 L 71.6 -51.7 L 71.6 -51.7 Q 71.2 -50.2 70.6 -48.7 L 70.6 -48.7 L 70.6 -48.7 Q 69.9 -47.2 68.9 -45.9 L 68.9 -45.9 L 68.9 -45.9 Q 67.8 -44.6 66 -43.7 L 66 -43.7 L 66 -43.7 Q 64 -42.6 62.2 -42.8 L 62.2 -42.8 L 62.2 -42.8 Q 60.5 -43 59 -43.7 L 59 -43.7 L 59 -43.7 Q 57.6 -44.5 56.3 -45.7 L 56.3 -45.7 L 56.3 -45.7 Q 55.1 -46.9 54.2 -47.8 L 54.2 -47.8 L 54.2 -47.8 Q 54.1 -48 54 -48.1 L 54 -48.1 L 54 -48.1 Q 53.8 -48.3 53.8 -48.2 L 53.8 -48.2 L 53.8 -48.2 Q 53.7 -48.1 53.8 -47.9 L 53.8 -47.9 L 53.8 -47.9 Q 53.8 -47.7 53.9 -47.6 L 53.9 -47.6 L 53.9 -47.6 Q 55.4 -44.8 58.4 -42.8 L 58.4 -42.8 L 58.4 -42.8 Q 59.1 -42.3 60.1 -41.9 L 60.1 -41.9 L 60.1 -41.9 Q 61.1 -41.5 62.3 -41.3 L 62.3 -41.3 L 62.3 -41.3 Q 63.5 -41.2 64.8 -41.4 L 64.8 -41.4 L 64.8 -41.4 Q 66 -41.6 67.2 -42.4 L 67.2 -42.4 L 67.2 -42.4 Q 69.3 -43.8 70.5 -45.4 L 70.5 -45.4 L 70.5 -45.4 Q 71.8 -46.9 72.5 -48.6 L 72.5 -48.6 L 72.5 -48.6 Q 73.3 -50.2 73.7 -51.9 L 73.7 -51.9 L 73.7 -51.9 Q 74.1 -53.6 74.5 -55.3 L 74.5 -55.3 L 74.5 -55.3 Q 75.6 -59.7 76 -64 L 76 -64 L 76 -64 Q 76.4 -68.3 76.7 -72.5 L 76.7 -72.5 L 76.7 -72.5 Q 77 -76.8 77.3 -80.9 L 77.3 -80.9 L 77.3 -80.9 Q 77.7 -85 78.8 -88.9 L 78.8 -88.9 L 78.8 -88.9 Q 78.9 -89.2 78.9 -89.3 L 78.9 -89.3 Z M 71.4 -77.3 L 71.4 -77.3 L 71.4 -77.3 Q 71.7 -78.7 72.2 -80.1 L 72.2 -80.1 L 72.2 -80.1 Q 72.8 -81.6 73.1 -83 L 73.1 -83 L 73.1 -83 Q 73.1 -83.1 73.2 -83.4 L 73.2 -83.4 L 73.2 -83.4 Q 73.3 -83.7 73.2 -83.7 L 73.2 -83.7 L 73.2 -83.7 Q 73.1 -83.8 72.9 -83.4 L 72.9 -83.4 L 72.9 -83.4 Q 72.6 -83 72.6 -83 L 72.6 -83 L 72.6 -83 Q 71.7 -81.5 71 -79.9 L 71 -79.9 L 71 -79.9 Q 70.3 -78.2 69.7 -76.9 L 69.7 -76.9 L 69.7 -76.9 Q 69.6 -76.6 69.2 -75.8 L 69.2 -75.8 L 69.2 -75.8 Q 68.8 -75 68.3 -74.2 L 68.3 -74.2 L 68.3 -74.2 Q 67.9 -73.3 67.6 -72.6 L 67.6 -72.6 L 67.6 -72.6 Q 67.4 -71.8 67.5 -71.7 L 67.5 -71.7 L 67.5 -71.7 Q 67.7 -71.7 67.9 -72 L 67.9 -72 L 67.9 -72 Q 68.2 -72.3 68.3 -72.4 L 68.3 -72.4 L 68.3 -72.4 Q 68.5 -72.7 68.8 -73.1 L 68.8 -73.1 L 68.8 -73.1 Q 69 -73.4 69.3 -73.7 L 69.3 -73.7 L 69.3 -73.7 Q 68.9 -72.1 68.6 -71.1 L 68.6 -71.1 L 68.6 -71.1 Q 68.3 -70 68 -69.2 L 68 -69.2 L 68 -69.2 Q 67.7 -68.4 67.3 -67.6 L 67.3 -67.6 L 67.3 -67.6 Q 66.8 -66.9 66.1 -65.9 L 66.1 -65.9 L 66.1 -65.9 Q 65.6 -65.2 64.9 -64.4 L 64.9 -64.4 L 64.9 -64.4 Q 64.2 -63.6 63.2 -63 L 63.2 -63 L 63.2 -63 Q 62.3 -62.3 61.2 -61.9 L 61.2 -61.9 L 61.2 -61.9 Q 60.1 -61.5 58.9 -61.5 L 58.9 -61.5 L 58.9 -61.5 Q 57.4 -61.5 56.5 -62.3 L 56.5 -62.3 L 56.5 -62.3 Q 55.6 -63.1 55.1 -64.2 L 55.1 -64.2 L 55.1 -64.2 Q 54.7 -65.4 54.6 -66.8 L 54.6 -66.8 L 54.6 -66.8 Q 54.4 -68.1 54.5 -69.3 L 54.5 -69.3 L 54.5 -69.3 Q 54.7 -73.9 56.6 -78.3 L 56.6 -78.3 L 56.6 -78.3 Q 58.5 -82.6 61.9 -86.1 L 61.9 -86.1 L 61.9 -86.1 Q 61.9 -86.2 62.1 -86.4 L 62.1 -86.4 L 62.1 -86.4 Q 62.3 -86.5 62.3 -86.6 L 62.3 -86.6 L 62.3 -86.6 Q 62.2 -86.7 62 -86.6 L 62 -86.6 L 61.7 -86.5 L 61.7 -86.5 Q 60.6 -85.8 59.3 -84.6 L 59.3 -84.6 L 59.3 -84.6 Q 58.1 -83.3 57 -81.7 L 57 -81.7 L 57 -81.7 Q 55.8 -80.1 54.9 -78.1 L 54.9 -78.1 L 54.9 -78.1 Q 54 -76.1 53.3 -74 L 53.3 -74 L 53.3 -74 Q 53 -72.9 52.9 -71.4 L 52.9 -71.4 L 52.9 -71.4 Q 52.7 -69.9 52.8 -68.3 L 52.8 -68.3 L 52.8 -68.3 Q 52.9 -66.6 53.2 -65 L 53.2 -65 L 53.2 -65 Q 53.6 -63.4 54.4 -62.1 L 54.4 -62.1 L 54.4 -62.1 Q 55.2 -60.9 56.4 -60.1 L 56.4 -60.1 L 56.4 -60.1 Q 57.7 -59.4 59.5 -59.5 L 59.5 -59.5 L 59.5 -59.5 Q 61.4 -59.7 62.5 -60.2 L 62.5 -60.2 L 62.5 -60.2 Q 63.6 -60.7 64.3 -61.3 L 64.3 -61.3 L 64.3 -61.3 Q 65.2 -62 65.9 -62.7 L 65.9 -62.7 L 65.9 -62.7 Q 66.6 -63.5 67.4 -64.2 L 67.4 -64.2 L 67.4 -64.2 Q 67 -62 66.6 -60.4 L 66.6 -60.4 L 66.6 -60.4 Q 66.3 -58.8 65.9 -57.4 L 65.9 -57.4 L 65.9 -57.4 Q 65.5 -55.5 65.1 -53.7 L 65.1 -53.7 L 65.1 -53.7 Q 64.7 -52 64.3 -50.6 L 64.3 -50.6 L 64.3 -50.6 Q 63.8 -49.3 63.3 -48.4 L 63.3 -48.4 L 63.3 -48.4 Q 62.7 -47.6 61.9 -47.4 L 61.9 -47.4 L 61.9 -47.4 Q 61 -47.4 61 -47.2 L 61 -47.2 L 61 -47.2 Q 61 -47.1 61.3 -46.9 L 61.3 -46.9 L 61.3 -46.9 Q 61.6 -46.8 61.9 -46.7 L 61.9 -46.7 L 61.9 -46.7 Q 62.9 -46.5 63.7 -47.1 L 63.7 -47.1 L 63.7 -47.1 Q 64.6 -47.6 65.3 -48.6 L 65.3 -48.6 L 65.3 -48.6 Q 65.9 -49.6 66.5 -50.9 L 66.5 -50.9 L 66.5 -50.9 Q 67 -52.2 67.4 -53.6 L 67.4 -53.6 L 67.4 -53.6 Q 68.2 -56.6 68.7 -59.4 L 68.7 -59.4 L 68.7 -59.4 Q 69.2 -62.2 69.7 -65.2 L 69.7 -65.2 L 69.7 -65.2 Q 70.1 -68.2 70.4 -71.2 L 70.4 -71.2 L 70.4 -71.2 Q 70.7 -74.3 71.4 -77.3 Z M 64.2 -45.6 L 64.2 -45.6 L 64.2 -45.6 Q 64.1 -45.7 63.9 -45.7 L 63.9 -45.7 L 63.9 -45.7 Q 63.6 -45.6 63.6 -45.6 L 63.6 -45.6 L 63.6 -45.6 Q 62.5 -45.5 61.4 -45.7 L 61.4 -45.7 L 61.4 -45.7 Q 60.4 -46 59.3 -46.4 L 59.3 -46.4 L 59.3 -46.4 Q 58.1 -46.9 57 -47.7 L 57 -47.7 L 57 -47.7 Q 56 -48.4 54.7 -49.2 L 54.7 -49.2 L 54.7 -49.2 Q 54.6 -49.4 54.4 -49.5 L 54.4 -49.5 L 54.4 -49.5 Q 54.1 -49.6 54.1 -49.5 L 54.1 -49.5 L 54.1 -49.5 Q 54 -49.4 54.2 -49.2 L 54.2 -49.2 L 54.2 -49.2 Q 54.4 -48.9 54.5 -48.8 L 54.5 -48.8 L 54.5 -48.8 Q 55.3 -47.7 56.2 -46.7 L 56.2 -46.7 L 56.2 -46.7 Q 57.2 -45.8 58.6 -45.2 L 58.6 -45.2 L 58.6 -45.2 Q 59.6 -44.8 60.6 -44.7 L 60.6 -44.7 L 60.6 -44.7 Q 61.7 -44.6 62.5 -44.7 L 62.5 -44.7 L 62.5 -44.7 Q 63.4 -44.8 63.9 -45 L 63.9 -45 L 63.9 -45 Q 64.4 -45.3 64.2 -45.6 Z M 98.1 -85.6 L 98.1 -85.6 L 98.1 -85.6 Q 98.6 -85 98.9 -84 L 98.9 -84 L 98.9 -84 Q 99.2 -83.1 99.1 -82 L 99.1 -82 L 99.1 -82 Q 99 -80.8 98.6 -79.6 L 98.6 -79.6 L 98.6 -79.6 Q 98.1 -78.4 97.2 -77.3 L 97.2 -77.3 L 97.2 -77.3 Q 95.3 -75.1 93.1 -73.9 L 93.1 -73.9 L 93.1 -73.9 Q 90.9 -72.7 89.1 -72.7 L 89.1 -72.7 L 89.1 -72.7 Q 88 -72.7 89.1 -73.1 L 89.1 -73.1 L 89.1 -73.1 Q 89.7 -73.3 90.5 -73.7 L 90.5 -73.7 L 90.5 -73.7 Q 91.3 -74.1 92.2 -74.7 L 92.2 -74.7 L 92.2 -74.7 Q 93.1 -75.3 94 -76.2 L 94 -76.2 L 94 -76.2 Q 94.9 -77 95.7 -78.1 L 95.7 -78.1 L 95.7 -78.1 Q 97 -79.9 97.2 -81.6 L 97.2 -81.6 L 97.2 -81.6 Q 97.4 -83.3 96.5 -84.2 L 96.5 -84.2 L 96.5 -84.2 Q 95.8 -84.9 94.7 -85 L 94.7 -85 L 94.7 -85 Q 93.7 -85.1 91.7 -83.9 L 91.7 -83.9 L 91.7 -83.9 Q 89.8 -82.8 88.3 -81.2 L 88.3 -81.2 L 88.3 -81.2 Q 86.9 -79.6 85.6 -77.8 L 85.6 -77.8 L 85.6 -77.8 Q 84.9 -76.9 84.7 -76.9 L 84.7 -76.9 L 84.7 -76.9 Q 84.4 -76.9 84.8 -78.1 L 84.8 -78.1 L 84.8 -78.1 Q 85.6 -80.3 87 -82.3 L 87 -82.3 L 87 -82.3 Q 88.3 -84.2 90.3 -85.5 L 90.3 -85.5 L 90.3 -85.5 Q 91.7 -86.5 92.9 -86.9 L 92.9 -86.9 L 92.9 -86.9 Q 94 -87.2 95 -87.2 L 95 -87.2 L 95 -87.2 Q 96 -87.1 96.8 -86.7 L 96.8 -86.7 L 96.8 -86.7 Q 97.6 -86.3 98.1 -85.6 Z M 101.5 -81.2 L 101.5 -81.2 L 101.5 -81.2 Q 101.3 -79.6 100.7 -78.6 L 100.7 -78.6 L 100.7 -78.6 Q 100.2 -77.5 99.5 -76.8 L 99.5 -76.8 L 99.5 -76.8 Q 98.8 -76 98.2 -75.6 L 98.2 -75.6 L 98.2 -75.6 Q 97.5 -75.2 97 -74.8 L 97 -74.8 L 97 -74.8 Q 96.7 -74.6 96.6 -74.7 L 96.6 -74.7 L 96.6 -74.7 Q 96.5 -74.8 96.8 -75.2 L 96.8 -75.2 L 96.8 -75.2 Q 97.9 -76.1 99.1 -77.7 L 99.1 -77.7 L 99.1 -77.7 Q 100.3 -79.4 100.4 -81.4 L 100.4 -81.4 L 100.4 -81.4 Q 100.4 -84.8 98.7 -86.5 L 98.7 -86.5 L 98.7 -86.5 Q 97 -88.3 94.6 -88.1 L 94.6 -88.1 L 94.6 -88.1 Q 92.1 -87.9 89.4 -86.2 L 89.4 -86.2 L 89.4 -86.2 Q 87.6 -85.1 86.3 -83.6 L 86.3 -83.6 L 86.3 -83.6 Q 85 -82.2 84.1 -80.6 L 84.1 -80.6 L 84.1 -80.6 Q 83.1 -78.9 82.5 -77.2 L 82.5 -77.2 L 82.5 -77.2 Q 81.9 -75.5 81.6 -73.7 L 81.6 -73.7 L 81.6 -73.7 Q 81.4 -72.1 81.1 -70.2 L 81.1 -70.2 L 81.1 -70.2 Q 80.9 -68.2 81.1 -66.4 L 81.1 -66.4 L 81.1 -66.4 Q 81.4 -64.5 82.3 -62.8 L 82.3 -62.8 L 82.3 -62.8 Q 83.3 -61.1 85.3 -59.9 L 85.3 -59.9 L 85.3 -59.9 Q 85.7 -59.7 86 -59.7 L 86 -59.7 L 86 -59.7 Q 86.4 -59.6 86.4 -59.5 L 86.4 -59.5 L 86.4 -59.5 Q 86.4 -59.4 86 -59.4 L 86 -59.4 L 86 -59.4 Q 85.7 -59.3 85.3 -59.5 L 85.3 -59.5 L 85.3 -59.5 Q 83.7 -59.8 82.6 -60.8 L 82.6 -60.8 L 82.6 -60.8 Q 81.5 -61.8 80.8 -63.1 L 80.8 -63.1 L 80.8 -63.1 Q 80.1 -64.3 79.7 -65.7 L 79.7 -65.7 L 79.7 -65.7 Q 79.3 -67.2 79.3 -68.3 L 79.3 -68.3 L 79.3 -68.3 Q 78.9 -73.4 80.7 -78.3 L 80.7 -78.3 L 80.7 -78.3 Q 81 -79.3 81.7 -80.6 L 81.7 -80.6 L 81.7 -80.6 Q 82.3 -81.9 83.2 -83.2 L 83.2 -83.2 L 83.2 -83.2 Q 84.1 -84.5 85.3 -85.7 L 85.3 -85.7 L 85.3 -85.7 Q 86.5 -87 88 -88 L 88 -88 L 88 -88 Q 89.5 -88.8 91.1 -89.3 L 91.1 -89.3 L 91.1 -89.3 Q 92.7 -89.7 94.3 -89.7 L 94.3 -89.7 L 94.3 -89.7 Q 95.9 -89.7 97.3 -89.1 L 97.3 -89.1 L 97.3 -89.1 Q 98.7 -88.6 99.8 -87.5 L 99.8 -87.5 L 99.8 -87.5 Q 100.8 -86.5 101.3 -84.9 L 101.3 -84.9 L 101.3 -84.9 Q 101.8 -83.3 101.5 -81.2 Z M 95.7 -83.5 L 95.7 -83.5 L 95.7 -83.5 Q 96.5 -82.6 95.9 -80.7 L 95.9 -80.7 L 95.9 -80.7 Q 95.3 -78.8 93.2 -76.9 L 93.2 -76.9 L 93.2 -76.9 Q 92.1 -75.8 91 -75.1 L 91 -75.1 L 91 -75.1 Q 89.9 -74.4 88.2 -73.9 L 88.2 -73.9 L 88.2 -73.9 Q 87.5 -71.5 87.3 -69.1 L 87.3 -69.1 L 87.3 -69.1 Q 87.1 -66.8 87.4 -65.3 L 87.4 -65.3 L 87.4 -65.3 Q 87.5 -64.7 87.9 -64.2 L 87.9 -64.2 L 87.9 -64.2 Q 88.2 -63.6 88.9 -63.3 L 88.9 -63.3 L 88.9 -63.3 Q 89.6 -63.1 90.6 -63.1 L 90.6 -63.1 L 90.6 -63.1 Q 91.7 -63.2 93.3 -63.8 L 93.3 -63.8 L 93.3 -63.8 Q 93.8 -64 93.9 -63.9 L 93.9 -63.9 L 93.9 -63.9 Q 94 -63.8 93.5 -63.5 L 93.5 -63.5 L 93.5 -63.5 Q 92.3 -62.6 91 -62.3 L 91 -62.3 L 91 -62.3 Q 89.8 -61.9 88.6 -62 L 88.6 -62 L 88.6 -62 Q 87.5 -62.2 86.7 -62.8 L 86.7 -62.8 L 86.7 -62.8 Q 85.9 -63.4 85.7 -64.5 L 85.7 -64.5 L 85.7 -64.5 Q 85.1 -66.8 85.2 -69.2 L 85.2 -69.2 L 85.2 -69.2 Q 85.3 -71.6 85.9 -74 L 85.9 -74 L 85.9 -74 Q 86.6 -76.4 87.9 -78.4 L 87.9 -78.4 L 87.9 -78.4 Q 89.1 -80.5 91 -82 L 91 -82 L 91 -82 Q 94.4 -84.8 95.7 -83.5 Z M 95.1 -63.1 L 95.1 -63.1 L 95.1 -63.1 Q 94.6 -62.4 93.9 -61.8 L 93.9 -61.8 L 93.9 -61.8 Q 93.3 -61.2 92.4 -60.7 L 92.4 -60.7 L 92.4 -60.7 Q 91.5 -60.2 90.6 -59.9 L 90.6 -59.9 L 90.6 -59.9 Q 89.7 -59.6 88.7 -59.6 L 88.7 -59.6 L 88.7 -59.6 Q 87.1 -59.6 85.6 -60.3 L 85.6 -60.3 L 85.6 -60.3 Q 84.2 -61.1 83.4 -63.3 L 83.4 -63.3 L 83.4 -63.3 Q 83.3 -63.6 83.3 -63.8 L 83.3 -63.8 L 83.3 -63.8 Q 83.3 -64 83.4 -64 L 83.4 -64 L 83.4 -64 Q 83.7 -64.1 83.9 -63.9 L 83.9 -63.9 L 83.9 -63.9 Q 84.2 -63.6 84.4 -63.2 L 84.4 -63.2 L 84.4 -63.2 Q 85.1 -62.4 86.3 -61.8 L 86.3 -61.8 L 86.3 -61.8 Q 87.4 -61.1 88.4 -61.1 L 88.4 -61.1 L 88.4 -61.1 Q 90.3 -61.1 91.7 -61.7 L 91.7 -61.7 L 91.7 -61.7 Q 93.1 -62.3 94.4 -63.2 L 94.4 -63.2 L 94.4 -63.2 Q 94.7 -63.4 95.2 -63.6 L 95.2 -63.6 L 95.2 -63.6 Q 95.6 -63.8 95.1 -63.1 Z M 94.2 -81.7 L 94.2 -81.7 L 94.2 -81.7 Q 93.9 -82.3 92.3 -80.9 L 92.3 -80.9 L 92.3 -80.9 Q 90.8 -79.8 90 -78.3 L 90 -78.3 L 90 -78.3 Q 89.1 -76.8 88.5 -75 L 88.5 -75 L 88.5 -75 Q 89.7 -75.5 90.7 -76.3 L 90.7 -76.3 L 90.7 -76.3 Q 91.7 -77 92.6 -77.7 L 92.6 -77.7 L 92.6 -77.7 Q 93.6 -78.5 94 -79.9 L 94 -79.9 L 94 -79.9 Q 94.5 -81.2 94.2 -81.7 Z M 108.4 -83.2 L 108.4 -83.2 L 108.4 -83.2 Q 108.4 -83.7 108.8 -84.5 L 108.8 -84.5 L 108.8 -84.5 Q 109.1 -85.3 109.6 -86.1 L 109.6 -86.1 L 109.6 -86.1 Q 110.2 -86.8 110.9 -87.4 L 110.9 -87.4 L 110.9 -87.4 Q 111.7 -88 112.7 -88.2 L 112.7 -88.2 L 112.7 -88.2 Q 114.7 -88.6 116.1 -88 L 116.1 -88 L 116.1 -88 Q 117.4 -87.3 118.1 -86.5 L 118.1 -86.5 L 118.1 -86.5 Q 118.4 -86.1 118.3 -86 L 118.3 -86 L 118.3 -86 Q 118.2 -85.9 117.8 -86.1 L 117.8 -86.1 L 117.8 -86.1 Q 117.5 -86.4 116.6 -86.5 L 116.6 -86.5 L 116.6 -86.5 Q 115.7 -86.7 114.7 -86.6 L 114.7 -86.6 L 114.7 -86.6 Q 113.8 -86.5 112.8 -86 L 112.8 -86 L 112.8 -86 Q 111.9 -85.5 111.3 -84.4 L 111.3 -84.4 L 111.3 -84.4 Q 110.8 -83.3 110.6 -82.1 L 110.6 -82.1 L 110.6 -82.1 Q 110.4 -81 110.4 -80 L 110.4 -80 L 110.4 -80 Q 110.4 -79 110.4 -78.3 L 110.4 -78.3 L 110.4 -78.3 Q 110.5 -77.6 110.5 -77.3 L 110.5 -77.3 L 110.5 -77.3 Q 110.6 -76.6 110.7 -75.6 L 110.7 -75.6 L 110.7 -75.6 Q 110.8 -74.5 110.8 -73.4 L 110.8 -73.4 L 110.8 -73.4 Q 110.8 -72.3 110.7 -71.3 L 110.7 -71.3 L 110.7 -71.3 Q 110.7 -70.2 110.5 -69.5 L 110.5 -69.5 L 110.5 -69.5 Q 110.4 -69.3 110.3 -68.8 L 110.3 -68.8 L 110.3 -68.8 Q 110.2 -68.4 110.1 -68.4 L 110.1 -68.4 L 110.1 -68.4 Q 109.8 -68.4 109.8 -68.8 L 109.8 -68.8 L 109.8 -68.8 Q 109.8 -69.3 109.8 -69.5 L 109.8 -69.5 L 109.8 -69.5 Q 109.7 -71.1 109.3 -72.7 L 109.3 -72.7 L 109.3 -72.7 Q 109 -74.3 108.7 -76 L 108.7 -76 L 108.7 -76 Q 108.4 -77.8 108.3 -79.5 L 108.3 -79.5 L 108.3 -79.5 Q 108.2 -81.3 108.4 -83.2 Z M 106.1 -70.5 L 106.1 -70.5 L 106.1 -70.5 Q 106.2 -71.8 105.9 -74.1 L 105.9 -74.1 L 105.9 -74.1 Q 105.6 -76.4 105.7 -79.5 L 105.7 -79.5 L 105.7 -79.5 Q 105.8 -81.1 106 -82.8 L 106 -82.8 L 106 -82.8 Q 106.3 -84.5 107.2 -86.2 L 107.2 -86.2 L 107.2 -86.2 Q 108.2 -88 109.8 -88.8 L 109.8 -88.8 L 109.8 -88.8 Q 111.4 -89.7 112.5 -89.6 L 112.5 -89.6 L 112.5 -89.6 Q 112.7 -89.6 112.9 -89.6 L 112.9 -89.6 L 112.9 -89.6 Q 113.1 -89.6 113.1 -89.6 L 113.1 -89.6 L 113.1 -89.6 Q 113.1 -89.4 113 -89.5 L 113 -89.5 L 113 -89.5 Q 113 -89.5 112.6 -89.4 L 112.6 -89.4 L 112.6 -89.4 Q 111.4 -89 110.6 -88.3 L 110.6 -88.3 L 110.6 -88.3 Q 109.7 -87.6 109 -86.6 L 109 -86.6 L 109 -86.6 Q 108.4 -85.6 108 -84.6 L 108 -84.6 L 108 -84.6 Q 107.6 -83.6 107.5 -82.8 L 107.5 -82.8 L 107.5 -82.8 Q 107.2 -79.2 107.6 -76.6 L 107.6 -76.6 L 107.6 -76.6 Q 107.9 -74.5 108.1 -72.2 L 108.1 -72.2 L 108.1 -72.2 Q 108.3 -70 108 -68.1 L 108 -68.1 L 108 -68.1 Q 107.6 -66.2 106.6 -64.9 L 106.6 -64.9 L 106.6 -64.9 Q 105.6 -63.7 103.6 -63.6 L 103.6 -63.6 L 103.6 -63.6 Q 103.4 -63.6 103.1 -63.6 L 103.1 -63.6 L 103.1 -63.6 Q 102.8 -63.6 102.8 -63.8 L 102.8 -63.8 L 102.8 -63.8 Q 102.8 -63.9 103.4 -64.2 L 103.4 -64.2 L 103.4 -64.2 Q 105 -65 105.6 -66.4 L 105.6 -66.4 L 105.6 -66.4 Q 106.1 -67.9 106.1 -70.5 Z M 99.4 -62.9 L 99.4 -62.9 L 99.4 -62.9 Q 100.2 -61.5 102.2 -60.8 L 102.2 -60.8 L 102.2 -60.8 Q 104.2 -60.2 106.8 -60.9 L 106.8 -60.9 L 106.8 -60.9 Q 108.2 -61.3 109.2 -62.3 L 109.2 -62.3 L 109.2 -62.3 Q 110.2 -63.2 110.9 -64.4 L 110.9 -64.4 L 110.9 -64.4 Q 111.6 -65.6 111.9 -66.9 L 111.9 -66.9 L 111.9 -66.9 Q 112.3 -68.2 112.3 -69.3 L 112.3 -69.3 L 112.3 -69.3 Q 112.4 -71.1 112.2 -72.8 L 112.2 -72.8 L 112.2 -72.8 Q 112.1 -74.5 111.9 -76.1 L 111.9 -76.1 L 111.9 -76.1 Q 111.6 -77.8 111.5 -79.3 L 111.5 -79.3 L 111.5 -79.3 Q 111.3 -80.8 111.4 -82.3 L 111.4 -82.3 L 111.4 -82.3 Q 111.6 -83.9 112.3 -84.8 L 112.3 -84.8 L 112.3 -84.8 Q 113.1 -85.6 114.2 -85.8 L 114.2 -85.8 L 114.2 -85.8 Q 115.4 -86 116.6 -85.6 L 116.6 -85.6 L 116.6 -85.6 Q 117.8 -85.3 118.8 -84.4 L 118.8 -84.4 L 118.8 -84.4 Q 119.1 -84.3 119 -84.1 L 119 -84.1 L 119 -84.1 Q 119 -84 118.9 -84 L 118.9 -84 L 118.9 -84 Q 118.7 -84.1 118.6 -84.2 L 118.6 -84.2 L 118.6 -84.2 Q 116.2 -84.9 114.9 -84.6 L 114.9 -84.6 L 114.9 -84.6 Q 113.6 -84.3 113.5 -82.3 L 113.5 -82.3 L 113.5 -82.3 Q 113.4 -80 113.8 -76.9 L 113.8 -76.9 L 113.8 -76.9 Q 114.3 -73.8 114.2 -70 L 114.2 -70 L 114.2 -70 Q 114.3 -68.8 113.9 -67.1 L 113.9 -67.1 L 113.9 -67.1 Q 113.6 -65.4 112.8 -63.9 L 112.8 -63.9 L 112.8 -63.9 Q 112 -62.3 110.6 -61.1 L 110.6 -61.1 L 110.6 -61.1 Q 109.3 -59.9 107.5 -59.5 L 107.5 -59.5 L 107.5 -59.5 Q 104.2 -59 102.1 -59.9 L 102.1 -59.9 L 102.1 -59.9 Q 100.1 -60.8 99.2 -62.7 L 99.2 -62.7 L 99.2 -62.7 Q 99.1 -63.1 99.1 -63.1 L 99.1 -63.1 L 99.2 -63.1 L 99.2 -63.1 Q 99.2 -63.1 99.4 -62.9 Z M 102.2 -62.9 L 102.2 -62.9 L 102.2 -62.9 Q 103.4 -62.6 105.1 -62.7 L 105.1 -62.7 L 105.1 -62.7 Q 105.7 -62.7 106.5 -63 L 106.5 -63 L 106.5 -63 Q 107.4 -63.2 107.4 -63.1 L 107.4 -63.1 L 107.4 -63.1 Q 107.6 -62.9 107 -62.5 L 107 -62.5 L 107 -62.5 Q 106.5 -62.1 105.6 -61.8 L 105.6 -61.8 L 105.6 -61.8 Q 104.7 -61.5 103.7 -61.4 L 103.7 -61.4 L 103.7 -61.4 Q 102.7 -61.3 102.1 -61.6 L 102.1 -61.6 L 102.1 -61.6 Q 100.9 -62.1 100.3 -62.7 L 100.3 -62.7 L 100.3 -62.7 Q 99.8 -63.3 99.4 -64.2 L 99.4 -64.2 L 99.2 -64.5 L 99.2 -64.5 Q 99.1 -64.7 99.2 -64.8 L 99.2 -64.8 L 99.2 -64.8 Q 99.2 -64.8 99.4 -64.8 L 99.4 -64.8 L 99.4 -64.8 Q 99.4 -64.7 99.4 -64.7 L 99.4 -64.7 L 99.4 -64.7 Q 100.2 -64 100.7 -63.6 L 100.7 -63.6 L 100.7 -63.6 Q 101.3 -63.2 102.2 -62.9 Z M 140.1 -80.8 L 140.1 -80.8 L 140.1 -80.8 Q 139.8 -78.6 139.8 -76.5 L 139.8 -76.5 L 139.8 -76.5 Q 139.8 -74.4 140.1 -72.5 L 140.1 -72.5 L 140.1 -72.5 Q 140.4 -70.7 141 -69.2 L 141 -69.2 L 141 -69.2 Q 141.7 -67.7 142.6 -66.6 L 142.6 -66.6 L 142.6 -66.6 Q 143.8 -65.4 145.8 -64.8 L 145.8 -64.8 L 145.8 -64.8 Q 147.7 -64.3 150.2 -64.6 L 150.2 -64.6 L 150.2 -64.6 Q 150.8 -67.1 151.7 -69.4 L 151.7 -69.4 L 151.7 -69.4 Q 152.5 -71.7 153.3 -73.9 L 153.3 -73.9 L 153.3 -73.9 Q 154.1 -76 154.7 -78.2 L 154.7 -78.2 L 154.7 -78.2 Q 155.3 -80.3 155.3 -82.3 L 155.3 -82.3 L 155.3 -82.3 Q 155.3 -82.5 155.4 -82.5 L 155.4 -82.5 L 155.4 -82.5 Q 155.4 -82.5 155.5 -82.3 L 155.5 -82.3 L 155.5 -82.3 Q 155.6 -82.1 155.6 -82.1 L 155.6 -82.1 L 155.6 -82.1 Q 156.4 -79.7 156.1 -77.3 L 156.1 -77.3 L 156.1 -77.3 Q 155.8 -74.9 155 -72.4 L 155 -72.4 L 155 -72.4 Q 154.2 -69.9 153.2 -67.3 L 153.2 -67.3 L 153.2 -67.3 Q 152.2 -64.7 151.5 -62 L 151.5 -62 L 151.5 -62 Q 151.2 -60.8 151.1 -59.1 L 151.1 -59.1 L 151.1 -59.1 Q 151.1 -57.5 151.4 -55.8 L 151.4 -55.8 L 151.4 -55.8 Q 151.6 -54.1 152.4 -52.4 L 152.4 -52.4 L 152.4 -52.4 Q 153.1 -50.8 154.5 -49.5 L 154.5 -49.5 L 154.5 -49.5 Q 154.5 -49.4 154.6 -49.2 L 154.6 -49.2 L 154.7 -49.2 L 154.7 -49.2 Q 154.7 -49.2 154.5 -49.2 L 154.5 -49.2 L 154.5 -49.2 Q 154.5 -49.2 154.4 -49.2 L 154.4 -49.2 L 154.4 -49.2 Q 152.7 -50.4 151.5 -51.9 L 151.5 -51.9 L 151.5 -51.9 Q 150.4 -53.3 149.9 -54.9 L 149.9 -54.9 L 149.9 -54.9 Q 149.3 -56.5 149.2 -58 L 149.2 -58 L 149.2 -58 Q 149.1 -59.6 149.4 -60.9 L 149.4 -60.9 L 149.4 -60.9 Q 147.5 -60.4 145.6 -60.8 L 145.6 -60.8 L 145.6 -60.8 Q 143.7 -61.1 142.1 -61.9 L 142.1 -61.9 L 142.1 -61.9 Q 141.8 -62 141.4 -62.4 L 141.4 -62.4 L 141.4 -62.4 Q 141.1 -62.8 141.1 -62.9 L 141.1 -62.9 L 141.1 -62.9 Q 141.1 -62.9 142.1 -62.7 L 142.1 -62.7 L 142.1 -62.7 Q 143.1 -62.5 144.4 -62.4 L 144.4 -62.4 L 144.4 -62.4 Q 145.6 -62.2 146.9 -62.1 L 146.9 -62.1 L 146.9 -62.1 Q 148.1 -62 148.7 -62.1 L 148.7 -62.1 L 148.7 -62.1 Q 148.9 -62.2 149.1 -62.2 L 149.1 -62.2 L 149.1 -62.2 Q 149.3 -62.2 149.7 -62.4 L 149.7 -62.4 L 149.7 -62.4 Q 149.7 -62.7 149.7 -63 L 149.7 -63 L 149.7 -63 Q 149.8 -63.2 149.9 -63.6 L 149.9 -63.6 L 149.9 -63.6 Q 147.7 -63.1 145.6 -63.4 L 145.6 -63.4 L 145.6 -63.4 Q 143.4 -63.8 141.8 -65.2 L 141.8 -65.2 L 141.8 -65.2 Q 140.4 -66.4 139.6 -68 L 139.6 -68 L 139.6 -68 Q 138.8 -69.6 138.4 -71.6 L 138.4 -71.6 L 138.4 -71.6 Q 138 -73.5 137.9 -75.6 L 137.9 -75.6 L 137.9 -75.6 Q 137.9 -77.6 138.1 -79.7 L 138.1 -79.7 L 138.1 -79.7 Q 138.3 -83 139.4 -86.3 L 139.4 -86.3 L 139.4 -86.3 Q 140.4 -89.6 142.1 -92.5 L 142.1 -92.5 L 142.1 -92.5 Q 143.8 -95.3 146.1 -97.4 L 146.1 -97.4 L 146.1 -97.4 Q 148.4 -99.5 151.4 -100.3 L 151.4 -100.3 L 151.4 -100.3 Q 152.7 -100.7 154.3 -100.6 L 154.3 -100.6 L 154.3 -100.6 Q 155.8 -100.6 157.1 -100 L 157.1 -100 L 157.1 -100 Q 158.5 -99.5 159.5 -98.6 L 159.5 -98.6 L 159.5 -98.6 Q 160.5 -97.7 160.7 -96.3 L 160.7 -96.3 L 160.7 -96.3 Q 161 -94.7 160.5 -93.3 L 160.5 -93.3 L 160.5 -93.3 Q 159.9 -91.9 158.9 -90.8 L 158.9 -90.8 L 158.9 -90.8 Q 157.8 -89.7 156.6 -89.3 L 156.6 -89.3 L 156.6 -89.3 Q 155.3 -88.8 154.1 -89.4 L 154.1 -89.4 L 154.1 -89.4 Q 153.7 -89.5 153.9 -89.6 L 153.9 -89.6 L 153.9 -89.6 Q 154.1 -89.7 154.1 -89.6 L 154.1 -89.6 L 154.1 -89.6 Q 154.2 -89.6 154.3 -89.6 L 154.3 -89.6 L 154.3 -89.6 Q 155.1 -89.4 156.1 -89.9 L 156.1 -89.9 L 156.1 -89.9 Q 157 -90.3 157.8 -91.2 L 157.8 -91.2 L 157.8 -91.2 Q 158.6 -92 159.1 -93.1 L 159.1 -93.1 L 159.1 -93.1 Q 159.6 -94.2 159.4 -95.4 L 159.4 -95.4 L 159.4 -95.4 Q 159.2 -96.3 158.6 -97 L 158.6 -97 L 158.6 -97 Q 158 -97.7 157 -98.2 L 157 -98.2 L 157 -98.2 Q 156.1 -98.6 154.9 -98.8 L 154.9 -98.8 L 154.9 -98.8 Q 153.7 -98.9 152.3 -98.6 L 152.3 -98.6 L 152.3 -98.6 Q 150 -98.2 147.9 -96.5 L 147.9 -96.5 L 147.9 -96.5 Q 145.9 -94.8 144.3 -92.3 L 144.3 -92.3 L 144.3 -92.3 Q 142.7 -89.9 141.6 -86.9 L 141.6 -86.9 L 141.6 -86.9 Q 140.5 -83.9 140.1 -80.8 Z M 145.2 -59.7 L 145.2 -59.7 L 145.2 -59.7 Q 146.1 -59.6 146.2 -59.5 L 146.2 -59.5 L 146.2 -59.5 Q 146.3 -59.5 145.2 -59.5 L 145.2 -59.5 L 145.2 -59.5 Q 143.4 -59.5 141.6 -60 L 141.6 -60 L 141.6 -60 Q 139.8 -60.6 138.2 -61.7 L 138.2 -61.7 L 138.2 -61.7 Q 136.6 -62.7 135.3 -64.3 L 135.3 -64.3 L 135.3 -64.3 Q 134 -65.8 133.4 -67.7 L 133.4 -67.7 L 133.4 -67.7 Q 132 -71.7 131.7 -75.4 L 131.7 -75.4 L 131.7 -75.4 Q 131.5 -79.1 132.1 -82.8 L 132.1 -82.8 L 132.1 -82.8 Q 132.4 -84.8 133.1 -87.3 L 133.1 -87.3 L 133.1 -87.3 Q 133.8 -89.9 135 -92.6 L 135 -92.6 L 135 -92.6 Q 136.3 -95.2 138.1 -97.9 L 138.1 -97.9 L 138.1 -97.9 Q 140 -100.5 142.6 -102.7 L 142.6 -102.7 L 142.6 -102.7 Q 145.4 -105 148.8 -105.7 L 148.8 -105.7 L 148.8 -105.7 Q 152.2 -106.4 155.2 -105.9 L 155.2 -105.9 L 155.2 -105.9 Q 158.3 -105.4 160.7 -103.7 L 160.7 -103.7 L 160.7 -103.7 Q 163 -102 163.8 -99.5 L 163.8 -99.5 L 163.8 -99.5 Q 163.9 -99.4 164 -99 L 164 -99 L 164 -99 Q 164.1 -98.6 164 -98.6 L 164 -98.6 L 164 -98.6 Q 163.9 -98.5 163.7 -98.8 L 163.7 -98.8 L 163.7 -98.8 Q 163.6 -99.2 163.3 -99.5 L 163.3 -99.5 L 163.3 -99.5 Q 160.6 -103.2 157.2 -104.1 L 157.2 -104.1 L 157.2 -104.1 Q 153.8 -105.1 150.5 -104.3 L 150.5 -104.3 L 150.5 -104.3 Q 147.2 -103.6 144.3 -101.4 L 144.3 -101.4 L 144.3 -101.4 Q 141.4 -99.3 139.7 -96.7 L 139.7 -96.7 L 139.7 -96.7 Q 136.7 -92.2 135.2 -87 L 135.2 -87 L 135.2 -87 Q 133.7 -81.8 133.8 -76.4 L 133.8 -76.4 L 133.8 -76.4 Q 133.8 -73.8 134.4 -71.1 L 134.4 -71.1 L 134.4 -71.1 Q 134.9 -68.4 136.2 -65.9 L 136.2 -65.9 L 136.2 -65.9 Q 137.5 -63.4 140 -61.7 L 140 -61.7 L 140 -61.7 Q 142.6 -60 145.2 -59.7 Z M 136.1 -84 L 136.1 -84 L 136.1 -84 Q 136.5 -87.3 137.6 -90.5 L 137.6 -90.5 L 137.6 -90.5 Q 138.7 -93.8 140.5 -96.4 L 140.5 -96.4 L 140.5 -96.4 Q 142.4 -99 145 -100.9 L 145 -100.9 L 145 -100.9 Q 147.7 -102.9 151.4 -103.6 L 151.4 -103.6 L 151.4 -103.6 Q 152.6 -103.9 154.2 -103.9 L 154.2 -103.9 L 154.2 -103.9 Q 155.7 -103.8 157.3 -103.3 L 157.3 -103.3 L 157.3 -103.3 Q 158.9 -102.7 160.2 -101.6 L 160.2 -101.6 L 160.2 -101.6 Q 161.6 -100.6 162.5 -98.6 L 162.5 -98.6 L 162.5 -98.6 Q 163.4 -96.8 163.1 -95 L 163.1 -95 L 163.1 -95 Q 162.9 -93.1 162.1 -91.7 L 162.1 -91.7 L 162.1 -91.7 Q 161.3 -90.3 160.1 -89.3 L 160.1 -89.3 L 160.1 -89.3 Q 158.9 -88.3 157.8 -88.2 L 157.8 -88.2 L 157.8 -88.2 Q 157.6 -88.1 157.3 -88.2 L 157.3 -88.2 L 157.3 -88.2 Q 157 -88.2 157 -88.3 L 157 -88.3 L 157 -88.3 Q 157 -88.5 157.1 -88.4 L 157.1 -88.4 L 157.1 -88.4 Q 157.1 -88.4 157.8 -88.7 L 157.8 -88.7 L 157.8 -88.7 Q 158.2 -88.8 158.8 -89.3 L 158.8 -89.3 L 158.8 -89.3 Q 159.4 -89.8 160 -90.6 L 160 -90.6 L 160 -90.6 Q 160.5 -91.3 161 -92.4 L 161 -92.4 L 161 -92.4 Q 161.4 -93.4 161.6 -94.6 L 161.6 -94.6 L 161.6 -94.6 Q 161.7 -95.9 161.2 -97 L 161.2 -97 L 161.2 -97 Q 160.8 -98.2 159.9 -99.1 L 159.9 -99.1 L 159.9 -99.1 Q 159.1 -100 157.9 -100.7 L 157.9 -100.7 L 157.9 -100.7 Q 156.8 -101.3 155.5 -101.5 L 155.5 -101.5 L 155.5 -101.5 Q 151.8 -102.1 148.7 -100.5 L 148.7 -100.5 L 148.7 -100.5 Q 145.6 -99 143.3 -96.2 L 143.3 -96.2 L 143.3 -96.2 Q 140.9 -93.5 139.3 -90.2 L 139.3 -90.2 L 139.3 -90.2 Q 137.7 -86.8 136.9 -83.8 L 136.9 -83.8 L 136.9 -83.8 Q 136.9 -83.7 136.7 -83.3 L 136.7 -83.3 L 136.7 -83.3 Q 136.6 -83 136.5 -82.5 L 136.5 -82.5 L 136.5 -82.5 Q 136.3 -82.1 136.2 -81.7 L 136.2 -81.7 L 136.2 -81.7 Q 136.2 -81.4 136.1 -81.4 L 136.1 -81.4 L 136.1 -81.4 Q 136 -81.4 136 -81.7 L 136 -81.7 L 136 -81.7 Q 136 -82.1 136 -82.5 L 136 -82.5 L 136 -82.5 Q 136 -83 136.1 -83.4 L 136.1 -83.4 L 136.1 -83.4 Q 136.1 -83.9 136.1 -84 Z M 158 -61.4 L 158 -61.4 L 158 -61.4 Q 157.7 -60 156.9 -57.8 L 156.9 -57.8 L 156.9 -57.8 Q 156.2 -55.7 155.6 -53.9 L 155.6 -53.9 L 155.6 -53.9 Q 155.4 -53.4 155.3 -53.4 L 155.3 -53.4 L 155.3 -53.4 Q 155 -53.4 155 -53.6 L 155 -53.6 L 155 -53.6 Q 155 -53.8 155 -54 L 155 -54 L 155 -54 Q 154.8 -55.7 154.9 -57.3 L 154.9 -57.3 L 154.9 -57.3 Q 155 -58.8 155.4 -60.4 L 155.4 -60.4 L 155.4 -60.4 Q 155.8 -61.9 156.3 -63.4 L 156.3 -63.4 L 156.3 -63.4 Q 156.9 -65 157.5 -66.7 L 157.5 -66.7 L 157.5 -66.7 Q 158.2 -68.9 158.9 -71.1 L 158.9 -71.1 L 158.9 -71.1 Q 159.5 -73.2 159.6 -75.9 L 159.6 -75.9 L 159.6 -75.9 Q 159.6 -76.2 159.7 -76.3 L 159.7 -76.3 L 159.7 -76.3 Q 159.7 -76.3 159.8 -76.3 L 159.8 -76.3 L 160 -75.9 L 160 -75.9 Q 160.7 -74.6 160.6 -72.6 L 160.6 -72.6 L 160.6 -72.6 Q 160.5 -70.6 160 -68.5 L 160 -68.5 L 160 -68.5 Q 159.6 -66.4 159 -64.5 L 159 -64.5 L 159 -64.5 Q 158.4 -62.5 158 -61.4 Z M 158.2 -71.6 L 158.2 -71.6 L 158.2 -71.6 Q 157.3 -69.1 156.2 -66.5 L 156.2 -66.5 L 156.2 -66.5 Q 155.2 -63.9 154 -61.5 L 154 -61.5 L 154 -61.5 Q 153.9 -61.4 153.8 -61 L 153.8 -61 L 153.8 -61 Q 153.6 -60.7 153.4 -60.8 L 153.4 -60.8 L 153.4 -60.8 Q 153.3 -60.8 153.3 -61.2 L 153.3 -61.2 L 153.3 -61.2 Q 153.3 -61.5 153.3 -61.7 L 153.3 -61.7 L 153.3 -61.7 Q 153.3 -62.3 153.4 -63.2 L 153.4 -63.2 L 153.4 -63.2 Q 153.6 -64 153.8 -64.9 L 153.8 -64.9 L 153.8 -64.9 Q 153.9 -65.7 154.2 -66.6 L 154.2 -66.6 L 154.2 -66.6 Q 154.4 -67.4 154.6 -68 L 154.6 -68 L 154.6 -68 Q 154.8 -68.4 155.2 -70.1 L 155.2 -70.1 L 155.2 -70.1 Q 155.7 -71.8 156.1 -73.8 L 156.1 -73.8 L 156.1 -73.8 Q 156.6 -75.8 156.8 -77.7 L 156.8 -77.7 L 156.8 -77.7 Q 157.1 -79.6 156.8 -80.6 L 156.8 -80.6 L 156.8 -80.6 Q 156.7 -80.9 156.8 -81 L 156.8 -81 L 156.8 -81 Q 157 -81 157 -80.9 L 157 -80.9 L 157 -80.9 Q 157.1 -80.7 157.3 -80.6 L 157.3 -80.6 L 157.3 -80.6 Q 157.8 -79.7 158.2 -78.5 L 158.2 -78.5 L 158.2 -78.5 Q 158.5 -77.3 158.6 -76.1 L 158.6 -76.1 L 158.6 -76.1 Q 158.7 -74.8 158.6 -73.6 L 158.6 -73.6 L 158.6 -73.6 Q 158.5 -72.5 158.2 -71.6 Z M 154.5 -52.7 L 154.5 -52.7 L 154.5 -52.7 Q 155.2 -51.1 156.3 -49.7 L 156.3 -49.7 L 156.3 -49.7 Q 156.5 -49.5 156.4 -49.4 L 156.4 -49.4 L 156.4 -49.4 Q 156.2 -49.2 156 -49.4 L 156 -49.4 L 156 -49.4 Q 155.9 -49.4 155.8 -49.5 L 155.8 -49.5 L 155.8 -49.5 Q 154.9 -50 154.3 -50.5 L 154.3 -50.5 L 154.3 -50.5 Q 153.8 -51 153.2 -52.5 L 153.2 -52.5 L 153.2 -52.5 Q 153 -53 152.8 -53.8 L 152.8 -53.8 L 152.8 -53.8 Q 152.7 -54.6 152.6 -55.3 L 152.6 -55.3 L 152.6 -55.3 Q 152.5 -56.1 152.6 -56.6 L 152.6 -56.6 L 152.6 -56.6 Q 152.6 -57.1 152.8 -57 L 152.8 -57 L 152.8 -57 Q 153.1 -57 153.3 -56.3 L 153.3 -56.3 L 153.3 -56.3 Q 153.6 -55.5 153.6 -55.3 L 153.6 -55.3 L 153.6 -55.3 Q 153.9 -54.6 154 -54 L 154 -54 L 154 -54 Q 154.1 -53.3 154.5 -52.7 Z M 187.9 -82.1 L 187.9 -82.1 L 187.9 -82.1 Q 187.4 -79.5 186.1 -76.9 L 186.1 -76.9 L 186.1 -76.9 Q 184.9 -74.4 183.8 -72.1 L 183.8 -72.1 L 183.8 -72.1 Q 183.8 -72 183.5 -71.7 L 183.5 -71.7 L 183.5 -71.7 Q 183.3 -71.4 183.2 -71.4 L 183.2 -71.4 L 183.2 -71.4 Q 183 -71.4 183 -71.8 L 183 -71.8 L 183 -71.8 Q 183 -72.1 183 -72.3 L 183 -72.3 L 183 -72.3 Q 183.1 -72.8 183.2 -73.6 L 183.2 -73.6 L 183.2 -73.6 Q 183.4 -74.4 183.5 -75.3 L 183.5 -75.3 L 183.5 -75.3 Q 183.6 -76.2 183.8 -77 L 183.8 -77 L 183.8 -77 Q 184 -77.8 184.2 -78.4 L 184.2 -78.4 L 184.2 -78.4 Q 184.7 -80.6 185.1 -82.2 L 185.1 -82.2 L 185.1 -82.2 Q 185.5 -83.7 185.7 -85 L 185.7 -85 L 185.7 -85 Q 185.9 -86.3 185.9 -87.4 L 185.9 -87.4 L 185.9 -87.4 Q 185.9 -88.6 185.8 -89.9 L 185.8 -89.9 L 185.8 -89.9 Q 185.7 -90.4 185.8 -90.6 L 185.8 -90.6 L 185.8 -90.6 Q 185.9 -90.6 186.1 -90.4 L 186.1 -90.4 L 186.1 -90.4 Q 186.3 -90.3 186.5 -90.1 L 186.5 -90.1 L 186.5 -90.1 Q 187.5 -88.3 187.9 -86.3 L 187.9 -86.3 L 187.9 -86.3 Q 188.3 -84.2 187.9 -82.1 Z M 189.1 -86.7 L 189.4 -86.4 L 189.4 -86.4 Q 190.2 -85.1 190.2 -83.2 L 190.2 -83.2 L 190.2 -83.2 Q 190.2 -81.2 189.8 -79.1 L 189.8 -79.1 L 189.8 -79.1 Q 189.5 -77 188.9 -75.1 L 188.9 -75.1 L 188.9 -75.1 Q 188.3 -73.2 188.1 -72 L 188.1 -72 L 188.1 -72 Q 187.5 -69.8 186.6 -67.5 L 186.6 -67.5 L 186.6 -67.5 Q 185.8 -65.3 185.1 -63.6 L 185.1 -63.6 L 185.1 -63.6 Q 185 -63.4 184.9 -63.2 L 184.9 -63.2 L 184.9 -63.2 Q 184.8 -62.9 184.7 -62.9 L 184.7 -62.9 L 184.7 -62.9 Q 184.5 -62.9 184.5 -63.2 L 184.5 -63.2 L 184.5 -63.2 Q 184.5 -63.4 184.5 -63.6 L 184.5 -63.6 L 184.5 -63.6 Q 184.3 -67.2 185.3 -70.5 L 185.3 -70.5 L 185.3 -70.5 Q 186.3 -73.9 187.4 -77.3 L 187.4 -77.3 L 187.4 -77.3 Q 188 -79.4 188.6 -81.6 L 188.6 -81.6 L 188.6 -81.6 Q 189.1 -83.9 189.1 -86.5 L 189.1 -86.5 L 189.1 -86.5 Q 189.1 -86.7 189.1 -86.7 L 189.1 -86.7 Z M 183.4 -87.4 L 183.4 -87.4 L 183.4 -87.4 Q 179.5 -85.8 176.8 -82.9 L 176.8 -82.9 L 176.8 -82.9 Q 174 -79.9 172.6 -76.2 L 172.6 -76.2 L 172.6 -76.2 Q 171.9 -74.5 171.6 -73.2 L 171.6 -73.2 L 171.6 -73.2 Q 171.3 -71.9 171.1 -70.4 L 171.1 -70.4 L 171.1 -70.4 Q 171 -70 171.3 -69.7 L 171.3 -69.7 L 171.3 -69.7 Q 171.5 -69.4 171.8 -69.7 L 171.8 -69.7 L 171.8 -69.7 Q 173 -71.1 174.7 -73.3 L 174.7 -73.3 L 174.7 -73.3 Q 176.5 -75.5 178.3 -77.9 L 178.3 -77.9 L 178.3 -77.9 Q 180.1 -80.3 181.6 -82.8 L 181.6 -82.8 L 181.6 -82.8 Q 183 -85.3 183.4 -87.4 Z M 179.1 -65.7 L 179.1 -65.7 L 179.1 -65.7 Q 178.1 -64.4 177.2 -63.2 L 177.2 -63.2 L 177.2 -63.2 Q 176.3 -62.1 175.3 -61.2 L 175.3 -61.2 L 175.3 -61.2 Q 174.2 -60.4 172.8 -59.9 L 172.8 -59.9 L 172.8 -59.9 Q 171.5 -59.3 169.8 -59.3 L 169.8 -59.3 L 169.8 -59.3 Q 166.9 -59.2 165.4 -60.8 L 165.4 -60.8 L 165.4 -60.8 Q 163.9 -62.4 163.3 -64.7 L 163.3 -64.7 L 163.3 -64.7 Q 162.7 -67 162.9 -69.4 L 162.9 -69.4 L 162.9 -69.4 Q 163 -71.9 163.5 -73.5 L 163.5 -73.5 L 163.5 -73.5 Q 164.2 -75.7 165.2 -77.7 L 165.2 -77.7 L 165.2 -77.7 Q 166.2 -79.8 167.4 -81.4 L 167.4 -81.4 L 167.4 -81.4 Q 168.5 -83 169.7 -84.2 L 169.7 -84.2 L 169.7 -84.2 Q 170.8 -85.4 172 -86 L 172 -86 L 172 -86 Q 172.1 -86 172.3 -86.2 L 172.3 -86.2 L 172.3 -86.2 Q 172.5 -86.3 172.5 -86.1 L 172.5 -86.1 L 172.5 -86.1 Q 172.6 -86.1 172.4 -85.9 L 172.4 -85.9 L 172.4 -85.9 Q 172.3 -85.7 172.2 -85.6 L 172.2 -85.6 L 172.2 -85.6 Q 168.9 -82.1 166.9 -77.8 L 166.9 -77.8 L 166.9 -77.8 Q 165 -73.4 164.7 -68.8 L 164.7 -68.8 L 164.7 -68.8 Q 164.6 -67.7 164.8 -66.3 L 164.8 -66.3 L 164.8 -66.3 Q 165 -65 165.4 -63.8 L 165.4 -63.8 L 165.4 -63.8 Q 165.9 -62.6 166.8 -61.8 L 166.8 -61.8 L 166.8 -61.8 Q 167.7 -61 169.2 -61 L 169.2 -61 L 169.2 -61 Q 170.5 -61 171.5 -61.4 L 171.5 -61.4 L 171.5 -61.4 Q 172.5 -61.8 173.4 -62.5 L 173.4 -62.5 L 173.4 -62.5 Q 174.3 -63.2 175 -64 L 175 -64 L 175 -64 Q 175.8 -64.8 176.3 -65.5 L 176.3 -65.5 L 176.3 -65.5 Q 177.6 -67.1 178.7 -68.8 L 178.7 -68.8 L 178.7 -68.8 Q 178.7 -70.1 178.9 -71.3 L 178.9 -71.3 L 178.9 -71.3 Q 179 -72.5 179.4 -73.7 L 179.4 -73.7 L 179.4 -73.7 Q 179.5 -74.6 179.7 -75.2 L 179.7 -75.2 L 179.7 -75.2 Q 179.9 -75.7 180 -76.2 L 180 -76.2 L 180 -76.2 Q 180.2 -76.7 180.3 -77.2 L 180.3 -77.2 L 180.3 -77.2 Q 180.5 -77.8 180.8 -78.7 L 180.8 -78.7 L 180.8 -78.7 Q 179.8 -76.9 178.8 -75.3 L 178.8 -75.3 L 178.8 -75.3 Q 177.8 -73.7 176.7 -72.3 L 176.7 -72.3 L 176.7 -72.3 Q 175.6 -70.9 174.4 -69.5 L 174.4 -69.5 L 174.4 -69.5 Q 173.2 -68.1 171.8 -66.7 L 171.8 -66.7 L 171.8 -66.7 Q 170.7 -65.6 170 -66 L 170 -66 L 170 -66 Q 169.3 -66.4 169.2 -67.8 L 169.2 -67.8 L 169.2 -67.8 Q 169 -70 169.4 -72 L 169.4 -72 L 169.4 -72 Q 169.8 -74.1 170.6 -76.3 L 170.6 -76.3 L 170.6 -76.3 Q 171.5 -78.4 172.7 -80.3 L 172.7 -80.3 L 172.7 -80.3 Q 174 -82.2 175.6 -83.8 L 175.6 -83.8 L 175.6 -83.8 Q 177.2 -85.3 179.2 -86.4 L 179.2 -86.4 L 179.2 -86.4 Q 181.2 -87.6 183.4 -88 L 183.4 -88 L 183.4 -88 Q 183.6 -88.7 183.7 -89.2 L 183.7 -89.2 L 183.7 -89.2 Q 183.8 -89.7 183.8 -90.2 L 183.8 -90.2 L 183.8 -90.2 Q 184 -90.9 184 -90.9 L 184 -90.9 L 184 -90.9 Q 184.1 -91 184.2 -90.8 L 184.2 -90.8 L 184.2 -90.8 Q 184.4 -90.6 184.5 -90.3 L 184.5 -90.3 L 184.5 -90.3 Q 185.3 -88.1 185 -86 L 185 -86 L 185 -86 Q 184.8 -83.9 184.1 -81.7 L 184.1 -81.7 L 184.1 -81.7 Q 183.4 -79.6 182.6 -77.3 L 182.6 -77.3 L 182.6 -77.3 Q 181.7 -75 181.1 -72.7 L 181.1 -72.7 L 181.1 -72.7 Q 180.3 -69.5 180.7 -66 L 180.7 -66 L 180.7 -66 Q 181 -62.5 183.4 -59.7 L 183.4 -59.7 L 183.4 -59.7 Q 183.6 -59.4 183.6 -59.4 L 183.6 -59.4 L 183.6 -59.4 Q 183.5 -59.3 183.2 -59.5 L 183.2 -59.5 L 183.2 -59.5 Q 181.3 -60.7 180.4 -62.3 L 180.4 -62.3 L 180.4 -62.3 Q 179.5 -64 179.1 -65.7 Z M 181.3 -88.4 L 181.3 -88.4 L 181.3 -88.4 Q 181.5 -88.3 181.3 -88.2 L 181.3 -88.2 L 181.3 -88.2 Q 181.1 -88.1 180.6 -88 L 180.6 -88 L 180.6 -88 Q 179.8 -87.8 178.6 -87.1 L 178.6 -87.1 L 178.6 -87.1 Q 177.4 -86.4 176.1 -85.3 L 176.1 -85.3 L 176.1 -85.3 Q 174.8 -84.2 173.5 -82.7 L 173.5 -82.7 L 173.5 -82.7 Q 172.2 -81.3 171.3 -79.6 L 171.3 -79.6 L 171.3 -79.6 Q 170.3 -77.9 169.7 -76.2 L 169.7 -76.2 L 169.7 -76.2 Q 169 -74.6 168.6 -73.2 L 168.6 -73.2 L 168.6 -73.2 Q 168.2 -71.8 168 -70.8 L 168 -70.8 L 168 -70.8 Q 167.8 -69.8 167.8 -69.5 L 167.8 -69.5 L 167.8 -69.5 Q 167.8 -68.5 167.8 -67.4 L 167.8 -67.4 L 167.8 -67.4 Q 167.8 -66.4 168 -65.6 L 168 -65.6 L 168 -65.6 Q 168.3 -64.7 168.9 -64.3 L 168.9 -64.3 L 168.9 -64.3 Q 169.6 -63.8 170.8 -64 L 170.8 -64 L 170.8 -64 Q 170.9 -64 171.2 -64.1 L 171.2 -64.1 L 171.2 -64.1 Q 171.4 -64.2 171.7 -64.3 L 171.7 -64.3 L 171.7 -64.3 Q 171.9 -64.4 172.2 -64.5 L 172.2 -64.5 L 172.2 -64.5 Q 172.4 -64.5 172.4 -64.5 L 172.4 -64.5 L 172.4 -64.5 Q 172.5 -64.4 172.3 -64.2 L 172.3 -64.2 L 172.3 -64.2 Q 172.2 -64 171.9 -63.8 L 171.9 -63.8 L 171.9 -63.8 Q 171.7 -63.6 171.4 -63.4 L 171.4 -63.4 L 171.4 -63.4 Q 171.2 -63.2 171.2 -63.1 L 171.2 -63.1 L 171.2 -63.1 Q 169.6 -62.2 168.5 -62.5 L 168.5 -62.5 L 168.5 -62.5 Q 167.4 -62.9 166.8 -64 L 166.8 -64 L 166.8 -64 Q 166.2 -65 165.9 -66.5 L 165.9 -66.5 L 165.9 -66.5 Q 165.7 -67.9 165.8 -69.1 L 165.8 -69.1 L 165.8 -69.1 Q 165.9 -71.3 166.5 -73.5 L 166.5 -73.5 L 166.5 -73.5 Q 167.1 -75.7 168 -78 L 168 -78 L 168 -78 Q 168.7 -79.7 170.1 -81.5 L 170.1 -81.5 L 170.1 -81.5 Q 171.5 -83.3 173.2 -84.9 L 173.2 -84.9 L 173.2 -84.9 Q 175 -86.4 176.9 -87.4 L 176.9 -87.4 L 176.9 -87.4 Q 178.8 -88.4 180.6 -88.5 L 180.6 -88.5 L 180.6 -88.5 Q 181.3 -88.5 181.3 -88.4 Z M 185.1 -59.7 L 185.1 -59.7 L 185.1 -59.7 Q 185.2 -59.5 185.2 -59.4 L 185.2 -59.4 L 185.2 -59.4 Q 185 -59.4 184.7 -59.5 L 184.7 -59.5 L 184.7 -59.5 Q 184.5 -59.7 183.6 -60.3 L 183.6 -60.3 L 183.6 -60.3 Q 182.8 -60.9 182.4 -62.4 L 182.4 -62.4 L 182.4 -62.4 Q 182.3 -62.9 182.2 -63.7 L 182.2 -63.7 L 182.2 -63.7 Q 182.1 -64.5 182.1 -65.2 L 182.1 -65.2 L 182.1 -65.2 Q 182.1 -65.9 182.2 -66.4 L 182.2 -66.4 L 182.2 -66.4 Q 182.3 -66.9 182.5 -66.9 L 182.5 -66.9 L 182.5 -66.9 Q 182.7 -66.9 182.9 -66.1 L 182.9 -66.1 L 182.9 -66.1 Q 183.1 -65.4 183.2 -65.2 L 183.2 -65.2 L 183.2 -65.2 Q 183.4 -64.3 183.5 -63.6 L 183.5 -63.6 L 183.5 -63.6 Q 183.7 -62.9 183.9 -62.4 L 183.9 -62.4 L 183.9 -62.4 Q 184.2 -61.6 184.6 -60.8 L 184.6 -60.8 L 184.6 -60.8 Q 185 -59.9 185.1 -59.7 Z M 203 -92.9 L 203 -92.9 L 203 -92.9 Q 203.4 -94.3 203.5 -96.3 L 203.5 -96.3 L 203.5 -96.3 Q 203.6 -98.3 203.5 -100.3 L 203.5 -100.3 L 203.5 -100.3 Q 203.4 -102.4 202.9 -104.1 L 202.9 -104.1 L 202.9 -104.1 Q 202.4 -105.9 201.4 -106.9 L 201.4 -106.9 L 201.4 -106.9 Q 201 -107.3 200.8 -107.2 L 200.8 -107.2 L 200.8 -107.2 Q 200.6 -107 200.9 -106.5 L 200.9 -106.5 L 200.9 -106.5 Q 201.6 -105.4 201.5 -103 L 201.5 -103 L 201.5 -103 Q 201.5 -100.6 201.1 -97.7 L 201.1 -97.7 L 201.1 -97.7 Q 200.7 -94.9 200.1 -92.1 L 200.1 -92.1 L 200.1 -92.1 Q 199.4 -89.3 198.8 -87.2 L 198.8 -87.2 L 198.8 -87.2 Q 198.5 -86.3 198.2 -84.9 L 198.2 -84.9 L 198.2 -84.9 Q 197.8 -83.6 197.5 -82.2 L 197.5 -82.2 L 197.5 -82.2 Q 197.1 -80.8 196.9 -79.5 L 196.9 -79.5 L 196.9 -79.5 Q 196.6 -78.2 196.5 -77.3 L 196.5 -77.3 L 196.5 -77.3 Q 196.5 -77.1 196.4 -76.6 L 196.4 -76.6 L 196.4 -76.6 Q 196.4 -76 196.6 -75.9 L 196.6 -75.9 L 196.6 -75.9 Q 196.7 -75.9 197 -76.5 L 197 -76.5 L 197 -76.5 Q 197.2 -77 197.3 -77.1 L 197.3 -77.1 L 197.3 -77.1 Q 198.8 -80.7 200.4 -84.8 L 200.4 -84.8 L 200.4 -84.8 Q 202 -88.8 203 -92.9 Z M 201.5 -77.3 L 201.5 -77.3 L 201.5 -77.3 Q 201.8 -78.4 202.4 -80.3 L 202.4 -80.3 L 202.4 -80.3 Q 203 -82.1 203.5 -84.3 L 203.5 -84.3 L 203.5 -84.3 Q 204.1 -86.5 204.7 -88.9 L 204.7 -88.9 L 204.7 -88.9 Q 205.2 -91.3 205.5 -93.6 L 205.5 -93.6 L 205.5 -93.6 Q 205.8 -95.9 205.7 -97.8 L 205.7 -97.8 L 205.7 -97.8 Q 205.6 -99.7 205 -100.9 L 205 -100.9 L 205 -100.9 Q 205 -101.1 204.8 -101.3 L 204.8 -101.3 L 204.8 -101.3 Q 204.6 -101.5 204.6 -101 L 204.6 -101 L 204.6 -101 Q 204.7 -96.9 203.7 -92.8 L 203.7 -92.8 L 203.7 -92.8 Q 202.8 -88.7 201.7 -85.4 L 201.7 -85.4 L 201.7 -85.4 Q 200.9 -82.8 200 -80.1 L 200 -80.1 L 200 -80.1 Q 199.1 -77.5 198.5 -74.9 L 198.5 -74.9 L 198.5 -74.9 Q 197.9 -72.3 197.8 -69.8 L 197.8 -69.8 L 197.8 -69.8 Q 197.6 -67.3 198.2 -65 L 198.2 -65 L 198.2 -65 Q 198.5 -64.2 198.7 -64.2 L 198.7 -64.2 L 198.7 -64.2 Q 198.9 -64.3 198.9 -65 L 198.9 -65 L 198.9 -65 Q 198.9 -66.2 199.1 -67.6 L 199.1 -67.6 L 199.1 -67.6 Q 199.3 -69.1 199.7 -70.7 L 199.7 -70.7 L 199.7 -70.7 Q 200.1 -72.3 200.5 -74 L 200.5 -74 L 200.5 -74 Q 201 -75.7 201.5 -77.3 Z M 200.3 -59.7 L 200.3 -59.7 L 200.3 -59.7 Q 198 -60 196.3 -62 L 196.3 -62 L 196.3 -62 Q 194.5 -64 193.9 -66.8 L 193.9 -66.8 L 193.9 -66.8 Q 193.4 -69.6 193.7 -72.4 L 193.7 -72.4 L 193.7 -72.4 Q 193.9 -75.3 194.6 -77.8 L 194.6 -77.8 L 194.6 -77.8 Q 195.7 -81.6 197.1 -85.7 L 197.1 -85.7 L 197.1 -85.7 Q 198.5 -89.7 199.5 -93.7 L 199.5 -93.7 L 199.5 -93.7 Q 200.5 -97.7 200.6 -101.4 L 200.6 -101.4 L 200.6 -101.4 Q 200.7 -105 199.3 -108.1 L 199.3 -108.1 L 199.3 -108.1 Q 199.2 -108.2 199.1 -108.4 L 199.1 -108.4 L 199.1 -108.4 Q 199.1 -108.6 198.9 -108.6 L 198.9 -108.6 L 198.9 -108.6 Q 198.7 -108.6 198.9 -108.1 L 198.9 -108.1 L 198.9 -108.1 Q 199.4 -105.2 198.9 -101.7 L 198.9 -101.7 L 198.9 -101.7 Q 198.5 -98.3 197.5 -94.6 L 197.5 -94.6 L 197.5 -94.6 Q 196.5 -91 195.3 -87.1 L 195.3 -87.1 L 195.3 -87.1 Q 194 -83.2 192.9 -79.2 L 192.9 -79.2 L 192.9 -79.2 Q 192.1 -76.4 191.8 -73.1 L 191.8 -73.1 L 191.8 -73.1 Q 191.5 -69.9 192.2 -66.6 L 192.2 -66.6 L 192.2 -66.6 Q 192.6 -65 193.4 -63.6 L 193.4 -63.6 L 193.4 -63.6 Q 194.2 -62.3 195.3 -61.4 L 195.3 -61.4 L 195.3 -61.4 Q 196.4 -60.4 197.7 -59.9 L 197.7 -59.9 L 197.7 -59.9 Q 198.9 -59.4 200.3 -59.5 L 200.3 -59.5 L 200.5 -59.5 L 200.5 -59.5 Q 200.5 -59.5 200.7 -59.5 L 200.7 -59.5 L 200.7 -59.5 Q 200.7 -59.7 200.3 -59.7 Z M 198.4 -62.9 L 198.4 -62.9 L 198.4 -62.9 Q 197.2 -64.3 196.5 -66.4 L 196.5 -66.4 L 196.5 -66.4 Q 196.4 -66.6 196.3 -67 L 196.3 -67 L 196.3 -67 Q 196.2 -67.4 196.1 -67.8 L 196.1 -67.8 L 196.1 -67.8 Q 195.9 -68.2 195.8 -68.6 L 195.8 -68.6 L 195.8 -68.6 Q 195.7 -68.9 195.6 -68.9 L 195.6 -68.9 L 195.6 -68.9 Q 195.4 -68.9 195.4 -68.1 L 195.4 -68.1 L 195.4 -68.1 Q 195.4 -67.3 195.5 -66.2 L 195.5 -66.2 L 195.5 -66.2 Q 195.7 -65.1 196.1 -64 L 196.1 -64 L 196.1 -64 Q 196.5 -62.9 197 -62.2 L 197 -62.2 L 197 -62.2 Q 198 -61.1 199.1 -60.8 L 199.1 -60.8 L 199.1 -60.8 Q 200.2 -60.6 201.2 -60.6 L 201.2 -60.6 L 201.2 -60.6 Q 201.6 -60.6 201.8 -60.8 L 201.8 -60.8 L 201.8 -60.8 Q 202.1 -61 201.5 -61.1 L 201.5 -61.1 L 201.5 -61.1 Q 199.6 -61.3 198.4 -62.9 Z M 216.3 -92.9 L 216.3 -92.9 L 216.3 -92.9 Q 216.7 -94.3 216.8 -96.3 L 216.8 -96.3 L 216.8 -96.3 Q 216.9 -98.3 216.8 -100.3 L 216.8 -100.3 L 216.8 -100.3 Q 216.7 -102.4 216.2 -104.1 L 216.2 -104.1 L 216.2 -104.1 Q 215.7 -105.9 214.7 -106.9 L 214.7 -106.9 L 214.7 -106.9 Q 214.4 -107.3 214.1 -107.2 L 214.1 -107.2 L 214.1 -107.2 Q 213.9 -107 214.2 -106.5 L 214.2 -106.5 L 214.2 -106.5 Q 214.9 -105.4 214.8 -103 L 214.8 -103 L 214.8 -103 Q 214.8 -100.6 214.4 -97.7 L 214.4 -97.7 L 214.4 -97.7 Q 214 -94.9 213.4 -92.1 L 213.4 -92.1 L 213.4 -92.1 Q 212.8 -89.3 212.1 -87.2 L 212.1 -87.2 L 212.1 -87.2 Q 211.8 -86.3 211.5 -84.9 L 211.5 -84.9 L 211.5 -84.9 Q 211.2 -83.6 210.8 -82.2 L 210.8 -82.2 L 210.8 -82.2 Q 210.5 -80.8 210.2 -79.5 L 210.2 -79.5 L 210.2 -79.5 Q 209.9 -78.2 209.8 -77.3 L 209.8 -77.3 L 209.8 -77.3 Q 209.8 -77.1 209.8 -76.6 L 209.8 -76.6 L 209.8 -76.6 Q 209.7 -76 209.9 -75.9 L 209.9 -75.9 L 209.9 -75.9 Q 210 -75.9 210.3 -76.5 L 210.3 -76.5 L 210.3 -76.5 Q 210.5 -77 210.6 -77.1 L 210.6 -77.1 L 210.6 -77.1 Q 212.1 -80.7 213.7 -84.8 L 213.7 -84.8 L 213.7 -84.8 Q 215.3 -88.8 216.3 -92.9 Z M 214.8 -77.3 L 214.8 -77.3 L 214.8 -77.3 Q 215.1 -78.4 215.7 -80.3 L 215.7 -80.3 L 215.7 -80.3 Q 216.3 -82.1 216.9 -84.3 L 216.9 -84.3 L 216.9 -84.3 Q 217.4 -86.5 218 -88.9 L 218 -88.9 L 218 -88.9 Q 218.5 -91.3 218.8 -93.6 L 218.8 -93.6 L 218.8 -93.6 Q 219.1 -95.9 219 -97.8 L 219 -97.8 L 219 -97.8 Q 218.9 -99.7 218.3 -100.9 L 218.3 -100.9 L 218.3 -100.9 Q 218.3 -101.1 218.1 -101.3 L 218.1 -101.3 L 218.1 -101.3 Q 217.9 -101.5 217.9 -101 L 217.9 -101 L 217.9 -101 Q 218 -96.9 217 -92.8 L 217 -92.8 L 217 -92.8 Q 216.1 -88.7 215 -85.4 L 215 -85.4 L 215 -85.4 Q 214.2 -82.8 213.3 -80.1 L 213.3 -80.1 L 213.3 -80.1 Q 212.4 -77.5 211.8 -74.9 L 211.8 -74.9 L 211.8 -74.9 Q 211.2 -72.3 211.1 -69.8 L 211.1 -69.8 L 211.1 -69.8 Q 210.9 -67.3 211.5 -65 L 211.5 -65 L 211.5 -65 Q 211.8 -64.2 212 -64.2 L 212 -64.2 L 212 -64.2 Q 212.2 -64.3 212.2 -65 L 212.2 -65 L 212.2 -65 Q 212.2 -66.2 212.4 -67.6 L 212.4 -67.6 L 212.4 -67.6 Q 212.6 -69.1 213 -70.7 L 213 -70.7 L 213 -70.7 Q 213.4 -72.3 213.8 -74 L 213.8 -74 L 213.8 -74 Q 214.3 -75.7 214.8 -77.3 Z M 213.6 -59.7 L 213.6 -59.7 L 213.6 -59.7 Q 211.4 -60 209.6 -62 L 209.6 -62 L 209.6 -62 Q 207.8 -64 207.3 -66.8 L 207.3 -66.8 L 207.3 -66.8 Q 206.7 -69.6 207 -72.4 L 207 -72.4 L 207 -72.4 Q 207.3 -75.3 208 -77.8 L 208 -77.8 L 208 -77.8 Q 209 -81.6 210.4 -85.7 L 210.4 -85.7 L 210.4 -85.7 Q 211.8 -89.7 212.8 -93.7 L 212.8 -93.7 L 212.8 -93.7 Q 213.8 -97.7 213.9 -101.4 L 213.9 -101.4 L 213.9 -101.4 Q 214 -105 212.6 -108.1 L 212.6 -108.1 L 212.6 -108.1 Q 212.5 -108.2 212.4 -108.4 L 212.4 -108.4 L 212.4 -108.4 Q 212.4 -108.6 212.2 -108.6 L 212.2 -108.6 L 212.2 -108.6 Q 212.1 -108.6 212.2 -108.1 L 212.2 -108.1 L 212.2 -108.1 Q 212.7 -105.2 212.2 -101.7 L 212.2 -101.7 L 212.2 -101.7 Q 211.8 -98.3 210.8 -94.6 L 210.8 -94.6 L 210.8 -94.6 Q 209.8 -91 208.6 -87.1 L 208.6 -87.1 L 208.6 -87.1 Q 207.3 -83.2 206.2 -79.2 L 206.2 -79.2 L 206.2 -79.2 Q 205.4 -76.4 205.1 -73.1 L 205.1 -73.1 L 205.1 -73.1 Q 204.8 -69.9 205.5 -66.6 L 205.5 -66.6 L 205.5 -66.6 Q 205.9 -65 206.7 -63.6 L 206.7 -63.6 L 206.7 -63.6 Q 207.5 -62.3 208.6 -61.4 L 208.6 -61.4 L 208.6 -61.4 Q 209.7 -60.4 211 -59.9 L 211 -59.9 L 211 -59.9 Q 212.2 -59.4 213.6 -59.5 L 213.6 -59.5 L 213.8 -59.5 L 213.8 -59.5 Q 213.8 -59.5 214 -59.5 L 214 -59.5 L 214 -59.5 Q 214 -59.7 213.6 -59.7 Z M 211.7 -62.9 L 211.7 -62.9 L 211.7 -62.9 Q 210.5 -64.3 209.8 -66.4 L 209.8 -66.4 L 209.8 -66.4 Q 209.8 -66.6 209.6 -67 L 209.6 -67 L 209.6 -67 Q 209.5 -67.4 209.4 -67.8 L 209.4 -67.8 L 209.4 -67.8 Q 209.2 -68.2 209.1 -68.6 L 209.1 -68.6 L 209.1 -68.6 Q 209 -68.9 208.9 -68.9 L 208.9 -68.9 L 208.9 -68.9 Q 208.7 -68.9 208.7 -68.1 L 208.7 -68.1 L 208.7 -68.1 Q 208.7 -67.3 208.9 -66.2 L 208.9 -66.2 L 208.9 -66.2 Q 209 -65.1 209.4 -64 L 209.4 -64 L 209.4 -64 Q 209.8 -62.9 210.3 -62.2 L 210.3 -62.2 L 210.3 -62.2 Q 211.4 -61.1 212.4 -60.8 L 212.4 -60.8 L 212.4 -60.8 Q 213.5 -60.6 214.6 -60.6 L 214.6 -60.6 L 214.6 -60.6 Q 214.9 -60.6 215.2 -60.8 L 215.2 -60.8 L 215.2 -60.8 Q 215.4 -61 214.8 -61.1 L 214.8 -61.1 L 214.8 -61.1 Q 213 -61.3 211.7 -62.9 Z M 236.3 -85.6 L 236.3 -85.6 L 236.3 -85.6 Q 236.8 -85 237.1 -84 L 237.1 -84 L 237.1 -84 Q 237.4 -83.1 237.3 -82 L 237.3 -82 L 237.3 -82 Q 237.3 -80.8 236.8 -79.6 L 236.8 -79.6 L 236.8 -79.6 Q 236.4 -78.4 235.4 -77.3 L 235.4 -77.3 L 235.4 -77.3 Q 233.6 -75.1 231.4 -73.9 L 231.4 -73.9 L 231.4 -73.9 Q 229.1 -72.7 227.4 -72.7 L 227.4 -72.7 L 227.4 -72.7 Q 226.3 -72.7 227.4 -73.1 L 227.4 -73.1 L 227.4 -73.1 Q 227.9 -73.3 228.7 -73.7 L 228.7 -73.7 L 228.7 -73.7 Q 229.5 -74.1 230.4 -74.7 L 230.4 -74.7 L 230.4 -74.7 Q 231.3 -75.3 232.2 -76.2 L 232.2 -76.2 L 232.2 -76.2 Q 233.2 -77 233.9 -78.1 L 233.9 -78.1 L 233.9 -78.1 Q 235.2 -79.9 235.4 -81.6 L 235.4 -81.6 L 235.4 -81.6 Q 235.7 -83.3 234.8 -84.2 L 234.8 -84.2 L 234.8 -84.2 Q 234 -84.9 233 -85 L 233 -85 L 233 -85 Q 232 -85.1 229.9 -83.9 L 229.9 -83.9 L 229.9 -83.9 Q 228.1 -82.8 226.6 -81.2 L 226.6 -81.2 L 226.6 -81.2 Q 225.1 -79.6 223.8 -77.8 L 223.8 -77.8 L 223.8 -77.8 Q 223.1 -76.9 222.9 -76.9 L 222.9 -76.9 L 222.9 -76.9 Q 222.7 -76.9 223.1 -78.1 L 223.1 -78.1 L 223.1 -78.1 Q 223.8 -80.3 225.2 -82.3 L 225.2 -82.3 L 225.2 -82.3 Q 226.6 -84.2 228.5 -85.5 L 228.5 -85.5 L 228.5 -85.5 Q 229.9 -86.5 231.1 -86.9 L 231.1 -86.9 L 231.1 -86.9 Q 232.3 -87.2 233.3 -87.2 L 233.3 -87.2 L 233.3 -87.2 Q 234.3 -87.1 235 -86.7 L 235 -86.7 L 235 -86.7 Q 235.8 -86.3 236.3 -85.6 Z M 239.8 -81.2 L 239.8 -81.2 L 239.8 -81.2 Q 239.5 -79.6 239 -78.6 L 239 -78.6 L 239 -78.6 Q 238.4 -77.5 237.8 -76.8 L 237.8 -76.8 L 237.8 -76.8 Q 237.1 -76 236.4 -75.6 L 236.4 -75.6 L 236.4 -75.6 Q 235.7 -75.2 235.2 -74.8 L 235.2 -74.8 L 235.2 -74.8 Q 235 -74.6 234.8 -74.7 L 234.8 -74.7 L 234.8 -74.7 Q 234.7 -74.8 235 -75.2 L 235 -75.2 L 235 -75.2 Q 236.2 -76.1 237.4 -77.7 L 237.4 -77.7 L 237.4 -77.7 Q 238.6 -79.4 238.6 -81.4 L 238.6 -81.4 L 238.6 -81.4 Q 238.6 -84.8 237 -86.5 L 237 -86.5 L 237 -86.5 Q 235.3 -88.3 232.8 -88.1 L 232.8 -88.1 L 232.8 -88.1 Q 230.3 -87.9 227.6 -86.2 L 227.6 -86.2 L 227.6 -86.2 Q 225.9 -85.1 224.6 -83.6 L 224.6 -83.6 L 224.6 -83.6 Q 223.3 -82.2 222.3 -80.6 L 222.3 -80.6 L 222.3 -80.6 Q 221.3 -78.9 220.7 -77.2 L 220.7 -77.2 L 220.7 -77.2 Q 220.1 -75.5 219.9 -73.7 L 219.9 -73.7 L 219.9 -73.7 Q 219.6 -72.1 219.4 -70.2 L 219.4 -70.2 L 219.4 -70.2 Q 219.2 -68.2 219.4 -66.4 L 219.4 -66.4 L 219.4 -66.4 Q 219.6 -64.5 220.6 -62.8 L 220.6 -62.8 L 220.6 -62.8 Q 221.5 -61.1 223.6 -59.9 L 223.6 -59.9 L 223.6 -59.9 Q 223.9 -59.7 224.2 -59.7 L 224.2 -59.7 L 224.2 -59.7 Q 224.6 -59.6 224.6 -59.5 L 224.6 -59.5 L 224.6 -59.5 Q 224.6 -59.4 224.3 -59.4 L 224.3 -59.4 L 224.3 -59.4 Q 224 -59.3 223.6 -59.5 L 223.6 -59.5 L 223.6 -59.5 Q 222 -59.8 220.9 -60.8 L 220.9 -60.8 L 220.9 -60.8 Q 219.7 -61.8 219 -63.1 L 219 -63.1 L 219 -63.1 Q 218.3 -64.3 217.9 -65.7 L 217.9 -65.7 L 217.9 -65.7 Q 217.6 -67.2 217.5 -68.3 L 217.5 -68.3 L 217.5 -68.3 Q 217.1 -73.4 218.9 -78.3 L 218.9 -78.3 L 218.9 -78.3 Q 219.3 -79.3 219.9 -80.6 L 219.9 -80.6 L 219.9 -80.6 Q 220.5 -81.9 221.4 -83.2 L 221.4 -83.2 L 221.4 -83.2 Q 222.3 -84.5 223.5 -85.7 L 223.5 -85.7 L 223.5 -85.7 Q 224.7 -87 226.3 -88 L 226.3 -88 L 226.3 -88 Q 227.7 -88.8 229.3 -89.3 L 229.3 -89.3 L 229.3 -89.3 Q 230.9 -89.7 232.5 -89.7 L 232.5 -89.7 L 232.5 -89.7 Q 234.1 -89.7 235.5 -89.1 L 235.5 -89.1 L 235.5 -89.1 Q 237 -88.6 238 -87.5 L 238 -87.5 L 238 -87.5 Q 239 -86.5 239.5 -84.9 L 239.5 -84.9 L 239.5 -84.9 Q 240.1 -83.3 239.8 -81.2 Z M 233.9 -83.5 L 233.9 -83.5 L 233.9 -83.5 Q 234.7 -82.6 234.1 -80.7 L 234.1 -80.7 L 234.1 -80.7 Q 233.6 -78.8 231.4 -76.9 L 231.4 -76.9 L 231.4 -76.9 Q 230.3 -75.8 229.2 -75.1 L 229.2 -75.1 L 229.2 -75.1 Q 228.1 -74.4 226.5 -73.9 L 226.5 -73.9 L 226.5 -73.9 Q 225.8 -71.5 225.6 -69.1 L 225.6 -69.1 L 225.6 -69.1 Q 225.4 -66.8 225.7 -65.3 L 225.7 -65.3 L 225.7 -65.3 Q 225.8 -64.7 226.1 -64.2 L 226.1 -64.2 L 226.1 -64.2 Q 226.5 -63.6 227.1 -63.3 L 227.1 -63.3 L 227.1 -63.3 Q 227.8 -63.1 228.9 -63.1 L 228.9 -63.1 L 228.9 -63.1 Q 230 -63.2 231.6 -63.8 L 231.6 -63.8 L 231.6 -63.8 Q 232 -64 232.1 -63.9 L 232.1 -63.9 L 232.1 -63.9 Q 232.2 -63.8 231.7 -63.5 L 231.7 -63.5 L 231.7 -63.5 Q 230.6 -62.6 229.3 -62.3 L 229.3 -62.3 L 229.3 -62.3 Q 228 -61.9 226.9 -62 L 226.9 -62 L 226.9 -62 Q 225.8 -62.2 225 -62.8 L 225 -62.8 L 225 -62.8 Q 224.2 -63.4 223.9 -64.5 L 223.9 -64.5 L 223.9 -64.5 Q 223.4 -66.8 223.4 -69.2 L 223.4 -69.2 L 223.4 -69.2 Q 223.5 -71.6 224.2 -74 L 224.2 -74 L 224.2 -74 Q 224.9 -76.4 226.1 -78.4 L 226.1 -78.4 L 226.1 -78.4 Q 227.4 -80.5 229.2 -82 L 229.2 -82 L 229.2 -82 Q 232.7 -84.8 233.9 -83.5 Z M 233.3 -63.1 L 233.3 -63.1 L 233.3 -63.1 Q 232.9 -62.4 232.2 -61.8 L 232.2 -61.8 L 232.2 -61.8 Q 231.5 -61.2 230.6 -60.7 L 230.6 -60.7 L 230.6 -60.7 Q 229.8 -60.2 228.9 -59.9 L 228.9 -59.9 L 228.9 -59.9 Q 227.9 -59.6 227 -59.6 L 227 -59.6 L 227 -59.6 Q 225.3 -59.6 223.9 -60.3 L 223.9 -60.3 L 223.9 -60.3 Q 222.4 -61.1 221.7 -63.3 L 221.7 -63.3 L 221.7 -63.3 Q 221.5 -63.6 221.5 -63.8 L 221.5 -63.8 L 221.5 -63.8 Q 221.5 -64 221.7 -64 L 221.7 -64 L 221.7 -64 Q 221.9 -64.1 222.2 -63.9 L 222.2 -63.9 L 222.2 -63.9 Q 222.4 -63.6 222.7 -63.2 L 222.7 -63.2 L 222.7 -63.2 Q 223.4 -62.4 224.5 -61.8 L 224.5 -61.8 L 224.5 -61.8 Q 225.6 -61.1 226.6 -61.1 L 226.6 -61.1 L 226.6 -61.1 Q 228.6 -61.1 230 -61.7 L 230 -61.7 L 230 -61.7 Q 231.4 -62.3 232.7 -63.2 L 232.7 -63.2 L 232.7 -63.2 Q 233 -63.4 233.4 -63.6 L 233.4 -63.6 L 233.4 -63.6 Q 233.8 -63.8 233.3 -63.1 Z M 232.4 -81.7 L 232.4 -81.7 L 232.4 -81.7 Q 232.2 -82.3 230.6 -80.9 L 230.6 -80.9 L 230.6 -80.9 Q 229.1 -79.8 228.2 -78.3 L 228.2 -78.3 L 228.2 -78.3 Q 227.4 -76.8 226.7 -75 L 226.7 -75 L 226.7 -75 Q 227.9 -75.5 229 -76.3 L 229 -76.3 L 229 -76.3 Q 230 -77 230.9 -77.7 L 230.9 -77.7 L 230.9 -77.7 Q 231.8 -78.5 232.3 -79.9 L 232.3 -79.9 L 232.3 -79.9 Q 232.7 -81.2 232.4 -81.7 Z M 248 -80.8 L 248 -80.8 L 248 -80.8 Q 247.5 -78.7 246.6 -76.3 L 246.6 -76.3 L 246.6 -76.3 Q 245.7 -73.9 244.5 -71.8 L 244.5 -71.8 L 244.5 -71.8 Q 244.5 -71.7 244.3 -71.4 L 244.3 -71.4 L 244.3 -71.4 Q 244.2 -71.1 243.9 -71.1 L 243.9 -71.1 L 243.9 -71.1 Q 243.8 -71.1 243.8 -71.5 L 243.8 -71.5 L 243.8 -71.5 Q 243.7 -71.9 243.8 -72 L 243.8 -72 L 243.8 -72 Q 243.8 -73 244.1 -74.7 L 244.1 -74.7 L 244.1 -74.7 Q 244.3 -76.4 244.7 -77.5 L 244.7 -77.5 L 244.7 -77.5 Q 244.8 -77.9 245.1 -79.4 L 245.1 -79.4 L 245.1 -79.4 Q 245.4 -80.8 245.6 -82.7 L 245.6 -82.7 L 245.6 -82.7 Q 245.8 -84.5 245.9 -86.2 L 245.9 -86.2 L 245.9 -86.2 Q 245.9 -87.9 245.5 -88.7 L 245.5 -88.7 L 245.5 -89 L 245.5 -89 Q 245.7 -89.2 246 -88.8 L 246 -88.8 L 246 -88.8 Q 246.9 -88.1 247.4 -87.1 L 247.4 -87.1 L 247.4 -87.1 Q 247.8 -86.1 248.1 -85 L 248.1 -85 L 248.1 -85 Q 248.3 -83.9 248.2 -82.8 L 248.2 -82.8 L 248.2 -82.8 Q 248.2 -81.7 248 -80.8 Z M 250.5 -81.1 L 250.5 -81.1 L 250.5 -81.1 Q 251.2 -82 251.9 -82.4 L 251.9 -82.4 L 251.9 -82.4 Q 252.5 -82.8 253.1 -83 L 253.1 -83 L 253.1 -83 Q 253.2 -83 253.5 -83.1 L 253.5 -83.1 L 253.5 -83.1 Q 253.7 -83.2 253.8 -83 L 253.8 -83 L 253.8 -83 Q 254 -82.8 253.8 -82.5 L 253.8 -82.5 L 253.8 -82.5 Q 253.6 -82.3 253.5 -82.1 L 253.5 -82.1 L 253.5 -82.1 Q 253 -81.7 252.5 -81.1 L 252.5 -81.1 L 252.5 -81.1 Q 251.9 -80.6 251.5 -80.1 L 251.5 -80.1 L 251.5 -80.1 Q 250.8 -79.4 250.5 -78.4 L 250.5 -78.4 L 250.5 -78.4 Q 250.1 -77.5 249.9 -76.6 L 249.9 -76.6 L 249.9 -76.6 Q 251 -77.7 252 -78.7 L 252 -78.7 L 252 -78.7 Q 253 -79.8 254.1 -80.7 L 254.1 -80.7 L 254.1 -80.7 Q 255.6 -81.7 256.7 -83.5 L 256.7 -83.5 L 256.7 -83.5 Q 257.8 -85.2 258.2 -88.5 L 258.2 -88.5 L 258.2 -88.5 Q 258.3 -88.8 258.5 -88.9 L 258.5 -88.9 L 258.5 -88.9 Q 258.7 -89 258.7 -88.5 L 258.7 -88.5 L 258.7 -88.5 Q 258.9 -84.8 257.9 -82.6 L 257.9 -82.6 L 257.9 -82.6 Q 257 -80.4 255.1 -78.9 L 255.1 -78.9 L 255.1 -78.9 Q 254 -78.2 253 -77.3 L 253 -77.3 L 253 -77.3 Q 252 -76.4 251.1 -75.3 L 251.1 -75.3 L 251.1 -75.3 Q 250.1 -74.2 249.4 -72.7 L 249.4 -72.7 L 249.4 -72.7 Q 248.6 -71.2 248 -69.3 L 248 -69.3 L 248 -69.3 Q 247.6 -67.9 247.1 -66.5 L 247.1 -66.5 L 247.1 -66.5 Q 246.7 -65.2 246.2 -64 L 246.2 -64 L 246.2 -64 Q 246 -63.6 245.8 -63.6 L 245.8 -63.6 L 245.8 -63.6 Q 245.6 -63.6 245.6 -64.2 L 245.6 -64.2 L 245.6 -64.2 Q 245.3 -67.3 246 -70.3 L 246 -70.3 L 246 -70.3 Q 246.7 -73.4 247.8 -76.6 L 247.8 -76.6 L 247.8 -76.6 Q 248.2 -78.2 248.8 -79.8 L 248.8 -79.8 L 248.8 -79.8 Q 249.4 -81.4 249.4 -83.5 L 249.4 -83.5 L 249.4 -83.5 Q 249.4 -84.2 249.9 -84.9 L 249.9 -84.9 L 249.9 -84.9 Q 250.5 -85.7 251.4 -86.4 L 251.4 -86.4 L 251.4 -86.4 Q 252.2 -87.1 253.1 -87.5 L 253.1 -87.5 L 253.1 -87.5 Q 254 -88 254.6 -88.2 L 254.6 -88.2 L 254.6 -88.2 Q 255.2 -88.4 255.2 -88.1 L 255.2 -88.1 L 255.2 -88.1 Q 255.2 -87.9 254.8 -87.5 L 254.8 -87.5 L 254.8 -87.5 Q 253.5 -86.3 252.1 -84.6 L 252.1 -84.6 L 252.1 -84.6 Q 250.7 -83 250.5 -81.1 Z M 245 -59.6 L 245 -59.6 L 245 -59.6 Q 244.9 -59.5 244.9 -59.6 L 244.9 -59.6 L 244.9 -59.6 Q 244.8 -59.6 244.5 -59.8 L 244.5 -59.8 L 244.5 -59.8 Q 242.6 -61.2 241.5 -62.9 L 241.5 -62.9 L 241.5 -62.9 Q 240.4 -64.5 239.9 -66.3 L 239.9 -66.3 L 239.9 -66.3 Q 239.4 -68 239.5 -69.8 L 239.5 -69.8 L 239.5 -69.8 Q 239.6 -71.6 240 -73.2 L 240 -73.2 L 240 -73.2 Q 240.5 -75.5 241.2 -77.7 L 241.2 -77.7 L 241.2 -77.7 Q 241.9 -79.9 242.6 -82 L 242.6 -82 L 242.6 -82 Q 243.2 -84 243.5 -86.1 L 243.5 -86.1 L 243.5 -86.1 Q 243.9 -88.1 243.5 -89.9 L 243.5 -89.9 L 243.5 -89.9 Q 243.5 -90.1 243.7 -90.1 L 243.7 -90.1 L 243.7 -90.1 Q 243.8 -90.1 243.9 -90 L 243.9 -90 L 243.9 -90 Q 243.9 -89.9 244 -89.9 L 244 -89.9 L 244 -89.9 Q 245.2 -87.8 245.2 -85.7 L 245.2 -85.7 L 245.2 -85.7 Q 245.2 -83.5 244.6 -81.3 L 244.6 -81.3 L 244.6 -81.3 Q 244.1 -79.1 243.2 -76.8 L 243.2 -76.8 L 243.2 -76.8 Q 242.3 -74.6 241.8 -72.3 L 241.8 -72.3 L 241.8 -72.3 Q 241.2 -69.3 241.7 -66 L 241.7 -66 L 241.7 -66 Q 242.3 -62.7 244.7 -60 L 244.7 -60 L 244.7 -60 Q 244.8 -59.9 245 -59.8 L 245 -59.8 L 245 -59.8 Q 245.1 -59.7 245 -59.6 Z M 246.9 -59.5 L 246.9 -59.5 L 246.9 -59.5 Q 246.7 -59.5 246.6 -59.6 L 246.6 -59.6 L 246.4 -59.7 L 246.4 -59.7 Q 245.5 -60.3 244.8 -61 L 244.8 -61 L 244.8 -61 Q 244.1 -61.6 243.5 -62.9 L 243.5 -62.9 L 243.5 -62.9 Q 243.4 -63.4 243.2 -64.1 L 243.2 -64.1 L 243.2 -64.1 Q 243.1 -64.8 243.1 -65.5 L 243.1 -65.5 L 243.1 -65.5 Q 243 -66.1 243.1 -66.6 L 243.1 -66.6 L 243.1 -66.6 Q 243.2 -67 243.5 -67 L 243.5 -67 L 243.5 -67 Q 243.7 -67 243.9 -66.4 L 243.9 -66.4 L 243.9 -66.4 Q 244.1 -65.9 244.2 -65.4 L 244.2 -65.4 L 244.2 -65.4 Q 244.4 -64.7 244.5 -64.1 L 244.5 -64.1 L 244.5 -64.1 Q 244.7 -63.4 245 -62.9 L 245 -62.9 L 245 -62.9 Q 245.7 -61.3 246.8 -59.9 L 246.8 -59.9 L 246.8 -59.9 Q 246.9 -59.5 246.9 -59.5 Z M 257.3 -88.3 L 257.3 -88.3 L 257.3 -88.3 Q 257.3 -86.9 256.5 -85.9 L 256.5 -85.9 L 256.5 -85.9 Q 255.8 -84.9 254.7 -84.2 L 254.7 -84.2 L 254.7 -84.2 Q 254.5 -84 254.4 -84.2 L 254.4 -84.2 L 254.4 -84.2 Q 254.4 -84.4 254.4 -84.4 L 254.4 -84.4 L 254.4 -84.4 Q 254.4 -84.8 254.7 -85.4 L 254.7 -85.4 L 254.7 -85.4 Q 255 -85.9 255.4 -86.5 L 255.4 -86.5 L 255.4 -86.5 Q 255.8 -87.1 256.2 -87.8 L 256.2 -87.8 L 256.2 -87.8 Q 256.6 -88.4 256.7 -88.9 L 256.7 -88.9 L 256.7 -88.9 Q 256.9 -89.2 257.1 -88.9 L 257.1 -88.9 L 257.1 -88.9 Q 257.3 -88.6 257.3 -88.3 Z M 280.7 -81.7 L 280.7 -81.7 L 280.7 -81.7 Q 280.7 -78.5 279.9 -75.1 L 279.9 -75.1 L 279.9 -75.1 Q 279 -71.6 277.6 -68.2 L 277.6 -68.2 L 277.6 -68.2 Q 276.2 -64.8 274.4 -61.7 L 274.4 -61.7 L 274.4 -61.7 Q 272.5 -58.7 270.6 -56.5 L 270.6 -56.5 L 270.6 -56.5 Q 269.9 -55.8 269.8 -55.8 L 269.8 -55.8 L 269.8 -55.8 Q 269.7 -55.9 269.9 -56.8 L 269.9 -56.8 L 269.9 -56.8 Q 270.3 -57.8 270.9 -59.1 L 270.9 -59.1 L 270.9 -59.1 Q 271.5 -60.4 272.1 -61.6 L 272.1 -61.6 L 272.1 -61.6 Q 272.7 -62.9 273.3 -64 L 273.3 -64 L 273.3 -64 Q 273.9 -65.2 274.3 -65.9 L 274.3 -65.9 L 274.3 -65.9 Q 274.8 -66.9 275.4 -68.5 L 275.4 -68.5 L 275.4 -68.5 Q 275.9 -70 276.5 -72 L 276.5 -72 L 276.5 -72 Q 277 -73.9 277.5 -76 L 277.5 -76 L 277.5 -76 Q 278 -78.1 278.4 -80 L 278.4 -80 L 278.4 -80 Q 278.8 -82 279 -83.6 L 279 -83.6 L 279 -83.6 Q 279.3 -85.3 279.2 -86.3 L 279.2 -86.3 L 279.2 -86.3 Q 279.1 -87.4 279.2 -87.8 L 279.2 -87.8 L 279.2 -87.8 Q 279.3 -88.1 279.4 -88 L 279.4 -88 L 279.4 -88 Q 279.6 -88 279.7 -87.6 L 279.7 -87.6 L 279.7 -87.6 Q 279.9 -87.3 280 -87.1 L 280 -87.1 L 280 -87.1 Q 280.5 -85.8 280.6 -84.2 L 280.6 -84.2 L 280.6 -84.2 Q 280.7 -82.6 280.7 -81.7 Z M 268.1 -64.1 L 268.1 -64.1 L 268.1 -64.1 Q 267.7 -63.6 266.9 -63.1 L 266.9 -63.1 L 266.9 -63.1 Q 266.1 -62.7 265.4 -62.7 L 265.4 -62.7 L 265.4 -62.7 Q 263.9 -62.7 262.9 -63.6 L 262.9 -63.6 L 262.9 -63.6 Q 261.9 -64.5 261.3 -65.8 L 261.3 -65.8 L 261.3 -65.8 Q 260.8 -67.1 260.5 -68.6 L 260.5 -68.6 L 260.5 -68.6 Q 260.3 -70 260.3 -71.2 L 260.3 -71.2 L 260.3 -71.2 Q 260.3 -72.9 260.7 -75.2 L 260.7 -75.2 L 260.7 -75.2 Q 261 -77.5 261.8 -79.7 L 261.8 -79.7 L 261.8 -79.7 Q 262.5 -82 263.5 -84 L 263.5 -84 L 263.5 -84 Q 264.6 -86 266.1 -87.2 L 266.1 -87.2 L 266.1 -87.2 Q 266.5 -87.5 266.8 -87.7 L 266.8 -87.7 L 266.8 -87.7 Q 267.1 -88 266.6 -87.1 L 266.6 -87.1 L 266.6 -87.1 Q 266.2 -86.4 265.8 -85.8 L 265.8 -85.8 L 265.8 -85.8 Q 265.5 -85.3 265.3 -84.7 L 265.3 -84.7 L 265.3 -84.7 Q 264.3 -82.8 263.7 -80.8 L 263.7 -80.8 L 263.7 -80.8 Q 263.1 -78.7 262.7 -76.6 L 262.7 -76.6 L 262.7 -76.6 Q 262.1 -73.8 262.1 -71 L 262.1 -71 L 262.1 -71 Q 262.1 -70 262.2 -68.8 L 262.2 -68.8 L 262.2 -68.8 Q 262.3 -67.5 262.7 -66.4 L 262.7 -66.4 L 262.7 -66.4 Q 263.1 -65.4 263.9 -64.6 L 263.9 -64.6 L 263.9 -64.6 Q 264.7 -63.9 266.1 -63.9 L 266.1 -63.9 L 266.1 -63.9 Q 266.5 -63.9 267 -64.1 L 267 -64.1 L 267 -64.1 Q 267.5 -64.3 267.8 -64.5 L 267.8 -64.5 L 267.8 -64.5 Q 268.3 -64.7 268.3 -64.5 L 268.3 -64.5 L 268.3 -64.5 Q 268.3 -64.4 268.1 -64.1 Z M 282.4 -80.7 L 282.4 -80.7 L 282.4 -80.7 Q 282.6 -79.7 282.6 -78.4 L 282.6 -78.4 L 282.6 -78.4 Q 282.6 -75.8 281.9 -72.6 L 281.9 -72.6 L 281.9 -72.6 Q 281.1 -69.5 279.9 -66.1 L 279.9 -66.1 L 279.9 -66.1 Q 278.6 -62.7 276.9 -59.2 L 276.9 -59.2 L 276.9 -59.2 Q 275.2 -55.8 273.4 -52.6 L 273.4 -52.6 L 273.4 -52.6 Q 271.6 -49.4 269.7 -46.6 L 269.7 -46.6 L 269.7 -46.6 Q 267.7 -43.8 266 -41.7 L 266 -41.7 L 266 -41.7 Q 265.9 -41.7 265.8 -41.5 L 265.8 -41.5 L 265.8 -41.5 Q 265.6 -41.3 265.5 -41.1 L 265.5 -41.1 L 265.5 -41.1 Q 265.3 -41 265.2 -40.9 L 265.2 -40.9 L 265.2 -40.9 Q 265 -40.8 265 -41.1 L 265 -41.1 L 265 -41.1 Q 265 -41.2 265.8 -42.8 L 265.8 -42.8 L 265.8 -42.8 Q 266.6 -44.4 267.9 -46.7 L 267.9 -46.7 L 267.9 -46.7 Q 269.1 -49 270.5 -51.8 L 270.5 -51.8 L 270.5 -51.8 Q 272 -54.5 273.3 -57 L 273.3 -57 L 273.3 -57 Q 274.6 -59.5 275.6 -61.4 L 275.6 -61.4 L 275.6 -61.4 Q 276.6 -63.3 277 -64 L 277 -64 L 277 -64 Q 278.8 -68.1 280.1 -72.2 L 280.1 -72.2 L 280.1 -72.2 Q 281.4 -76.4 281.9 -80.8 L 281.9 -80.8 L 281.9 -80.8 Q 282 -81.3 282 -81.3 L 282 -81.3 L 282 -81.3 Q 282.1 -81.4 282.4 -80.7 Z M 278.2 -85.4 L 278.2 -85.4 L 278.2 -85.4 Q 278.2 -81.8 277.2 -78.1 L 277.2 -78.1 L 277.2 -78.1 Q 276.2 -74.4 274.8 -70.9 L 274.8 -70.9 L 274.8 -70.9 Q 273.3 -67.3 271.5 -63.9 L 271.5 -63.9 L 271.5 -63.9 Q 269.8 -60.6 268.2 -57.7 L 268.2 -57.7 L 268.2 -57.7 Q 265.3 -52.3 263.3 -46.8 L 263.3 -46.8 L 263.3 -46.8 Q 261.3 -41.2 260.6 -35.2 L 260.6 -35.2 L 260.6 -35.2 Q 260.4 -34.5 260.4 -34.6 L 260.4 -34.6 L 260.4 -34.6 Q 260.3 -34.6 260.2 -35 L 260.2 -35 L 260.2 -35 Q 260.1 -35.3 260.1 -35.8 L 260.1 -35.8 L 260.1 -35.8 Q 260 -36.2 260 -36.6 L 260 -36.6 L 260 -36.6 Q 259.9 -37.1 259.9 -37.4 L 259.9 -37.4 L 259.9 -37.4 Q 259.9 -40.3 260.6 -43.2 L 260.6 -43.2 L 260.6 -43.2 Q 261.2 -46.2 262.2 -49 L 262.2 -49 L 262.2 -49 Q 263.3 -51.8 264.5 -54.5 L 264.5 -54.5 L 264.5 -54.5 Q 265.8 -57.2 267 -59.5 L 267 -59.5 L 265.3 -59.5 L 265.3 -59.5 Q 263.4 -59.5 262 -60.4 L 262 -60.4 L 262 -60.4 Q 260.6 -61.3 259.7 -62.8 L 259.7 -62.8 L 259.7 -62.8 Q 258.8 -64.3 258.3 -66.3 L 258.3 -66.3 L 258.3 -66.3 Q 257.8 -68.2 257.8 -70.4 L 257.8 -70.4 L 257.8 -70.4 Q 257.8 -71.2 258 -72.8 L 258 -72.8 L 258 -72.8 Q 258.2 -74.3 258.6 -75.9 L 258.6 -75.9 L 258.6 -75.9 Q 259 -77.5 259.5 -79.1 L 259.5 -79.1 L 259.5 -79.1 Q 260.1 -80.7 260.8 -81.6 L 260.8 -81.6 L 260.8 -81.6 Q 261.3 -82.3 261.4 -82.2 L 261.4 -82.2 L 261.4 -82.2 Q 261.5 -82.1 261.3 -81.4 L 261.3 -81.4 L 261.3 -81.4 Q 260.4 -78.9 260 -76.3 L 260 -76.3 L 260 -76.3 Q 259.5 -73.7 259.5 -71.1 L 259.5 -71.1 L 259.5 -71.1 Q 259.5 -69.6 259.7 -67.9 L 259.7 -67.9 L 259.7 -67.9 Q 259.9 -66.2 260.5 -64.8 L 260.5 -64.8 L 260.5 -64.8 Q 261.1 -63.3 262.2 -62.4 L 262.2 -62.4 L 262.2 -62.4 Q 263.4 -61.4 265.4 -61.4 L 265.4 -61.4 L 265.4 -61.4 Q 266.8 -61.4 267.9 -62.4 L 267.9 -62.4 L 267.9 -62.4 Q 269.1 -63.3 270 -64.7 L 270 -64.7 L 270 -64.7 Q 270.9 -66.1 271.7 -67.8 L 271.7 -67.8 L 271.7 -67.8 Q 272.4 -69.5 273 -70.9 L 273 -70.9 L 273 -70.9 Q 272.3 -70 271.5 -69.1 L 271.5 -69.1 L 271.5 -69.1 Q 270.6 -68.2 269.7 -67.5 L 269.7 -67.5 L 269.7 -67.5 Q 268.7 -66.8 267.7 -66.4 L 267.7 -66.4 L 267.7 -66.4 Q 266.8 -65.9 265.9 -65.9 L 265.9 -65.9 L 265.9 -65.9 Q 265 -65.9 264.5 -66.5 L 264.5 -66.5 L 264.5 -66.5 Q 264 -67.1 263.7 -68 L 263.7 -68 L 263.7 -68 Q 263.4 -68.8 263.3 -69.7 L 263.3 -69.7 L 263.3 -69.7 Q 263.3 -70.6 263.3 -71.3 L 263.3 -71.3 L 263.3 -71.3 Q 263.3 -73.6 263.5 -76 L 263.5 -76 L 263.5 -76 Q 263.8 -78.3 264.5 -80.6 L 264.5 -80.6 L 264.5 -80.6 Q 265.1 -82.8 266.2 -84.9 L 266.2 -84.9 L 266.2 -84.9 Q 267.2 -87 268.8 -88.7 L 268.8 -88.7 L 268.8 -88.7 Q 268.9 -88.9 269.1 -89.1 L 269.1 -89.1 L 269.1 -89.1 Q 269.3 -89.2 269.4 -89.3 L 269.4 -89.3 L 269.4 -89.3 Q 269.6 -89.4 269.6 -89.3 L 269.6 -89.3 L 269.6 -89.3 Q 269.6 -89.2 269.3 -88.7 L 269.3 -88.7 L 269.3 -88.7 Q 267.5 -85.3 266.3 -81 L 266.3 -81 L 266.3 -81 Q 265.1 -76.8 265.1 -72.8 L 265.1 -72.8 L 265.1 -72.8 Q 265.1 -72.5 265.1 -71.6 L 265.1 -71.6 L 265.1 -71.6 Q 265.2 -70.7 265.3 -69.8 L 265.3 -69.8 L 265.3 -69.8 Q 265.5 -68.9 265.8 -68.3 L 265.8 -68.3 L 265.8 -68.3 Q 266.2 -67.6 266.8 -67.6 L 266.8 -67.6 L 266.8 -67.6 Q 267 -67.6 267.3 -67.8 L 267.3 -67.8 L 267.3 -67.8 Q 270 -69.1 271.8 -71.5 L 271.8 -71.5 L 271.8 -71.5 Q 273.7 -73.9 274.9 -76.8 L 274.9 -76.8 L 274.9 -76.8 Q 276.1 -79.7 276.7 -82.8 L 276.7 -82.8 L 276.7 -82.8 Q 277.2 -85.9 277.3 -88.7 L 277.3 -88.7 L 277.3 -88.7 Q 277.3 -89.7 277.4 -89.8 L 277.4 -89.8 L 277.4 -89.8 Q 277.5 -89.9 277.8 -88.7 L 277.8 -88.7 L 277.8 -88.7 Q 278.2 -86.9 278.2 -85.4 Z M 266 -47.5 L 266 -47.5 L 266 -47.5 Q 266 -47.1 265.7 -46 L 265.7 -46 L 265.7 -46 Q 265.4 -45 265 -43.9 L 265 -43.9 L 265 -43.9 Q 264.7 -42.7 264.3 -41.6 L 264.3 -41.6 L 264.3 -41.6 Q 263.9 -40.5 263.7 -40 L 263.7 -40 L 263.7 -40 Q 263.2 -38.5 262.9 -37.2 L 262.9 -37.2 L 262.9 -37.2 Q 262.7 -35.8 262.4 -34.3 L 262.4 -34.3 L 262.4 -34.3 Q 262.4 -34.2 262.3 -33.9 L 262.3 -33.9 L 262.3 -33.9 Q 262.2 -33.7 262 -33.7 L 262 -33.7 L 262 -33.7 Q 261.9 -33.7 261.8 -34 L 261.8 -34 L 261.8 -34 Q 261.8 -34.3 261.8 -34.4 L 261.8 -34.4 L 261.8 -34.4 Q 261.7 -35 261.6 -35.9 L 261.6 -35.9 L 261.6 -35.9 Q 261.6 -36.8 261.7 -37.3 L 261.7 -37.3 L 261.7 -37.3 Q 261.8 -38.9 262.4 -40.7 L 262.4 -40.7 L 262.4 -40.7 Q 262.9 -42.5 263.5 -44.1 L 263.5 -44.1 L 263.5 -44.1 Q 264.1 -45.6 264.7 -46.7 L 264.7 -46.7 L 264.7 -46.7 Q 265.4 -47.7 265.8 -47.7 L 265.8 -47.7 L 265.8 -47.7 Q 266 -47.7 266 -47.5 Z" fill="#cccccc"></path></g></g><style>text {
  font-size: 64px;
  font-family: Arial Black;
  dominant-baseline: central;
  text-anchor: middle;
}</style></svg>